<svg width="44" height="44" fill="none" xmlns="http://www.w3.org/2000/svg"><path d="M27.225 36.43h2.987a7.464 7.464 0 007.463-7.463" stroke="#F26D36" stroke-width="2" stroke-linecap="round" stroke-linejoin="round"/><path d="M29.464 38.67l-2.239-2.238 2.239-2.239M16.775 7.57h-2.986a7.464 7.464 0 00-7.464 7.463" stroke="#F26D36" stroke-width="2" stroke-linecap="round" stroke-linejoin="round"/><path d="M14.537 5.33l2.238 2.24-2.238 2.238m17.07 12.227c4.8 0 8.726-3.927 8.726-8.725s-3.927-8.727-8.726-8.727c-4.8 0-8.725 3.927-8.725 8.727 0 1.958.662 3.764 1.76 5.223 1.597 2.12 4.125 3.502 6.965 3.502zm0-12.652V8.074m0 9.161v1.31" stroke="#F26D36" stroke-width="2" stroke-linecap="round" stroke-linejoin="round"/><path d="M29.335 16.3c.34.556.919.939 1.617.939h1.434a1.837 1.837 0 00.445-3.621l-2.453-.616a1.837 1.837 0 01.445-3.62h1.435c.699 0 1.276.38 1.616.934M18.533 36.848A8.71 8.71 0 116.217 24.531a8.71 8.71 0 0112.316 12.317zM7.597 30.69h5.225" stroke="#F26D36" stroke-width="2" stroke-linecap="round" stroke-linejoin="round"/><path d="M14.531 34.66c-1.588.688-3.489.406-4.787-.892a4.353 4.353 0 010-6.158c1.298-1.298 3.201-1.58 4.787-.893" stroke="#F26D36" stroke-width="2" stroke-linecap="round" stroke-linejoin="round"/></svg>