<svg width="44" height="44" fill="none" xmlns="http://www.w3.org/2000/svg"><path d="M33.002 9.625a.458.458 0 11-.004.917.458.458 0 01.004-.917z" stroke="#F26D36" stroke-width="2" stroke-linecap="round" stroke-linejoin="round"/><path d="M39.417 10.083A6.416 6.416 0 0033 3.667v0a6.417 6.417 0 00-6.417 6.416c0 3.004 3.278 6.213 5.148 7.8a2.01 2.01 0 002.536 0c1.872-1.587 5.15-4.796 5.15-7.8zM9.455 11.289l23.258 23.257M38.5 22A16.5 16.5 0 1122 5.5M9.455 32.712L20.167 22" stroke="#F26D36" stroke-width="2" stroke-linecap="round" stroke-linejoin="round"/></svg>