<svg width="44" height="44" fill="none" xmlns="http://www.w3.org/2000/svg"><path d="M29.986 29.984l4.86 12.641 2.917-4.862 4.862-2.917-12.639-4.862zm12.639 12.641l-4.862-4.862M8.25 22V8.25m0 0H11A2.75 2.75 0 0113.75 11v1.375a2.75 2.75 0 01-2.75 2.75H8.25m0 0H11a2.75 2.75 0 012.75 2.75v1.375A2.75 2.75 0 0111 22H8.25m11-13.75v11a2.75 2.75 0 105.5 0v-11m5.5 0v4.125a2.75 2.75 0 105.5 0V8.25M33 15.125V22" stroke="#F26D36" stroke-width="2" stroke-linecap="round" stroke-linejoin="round"/><path d="M23.375 28.875h-16.5a5.5 5.5 0 01-5.5-5.5v-16.5a5.5 5.5 0 015.5-5.5h30.25a5.5 5.5 0 015.5 5.5v16.5a5.5 5.5 0 01-2.825 4.807" stroke="#F26D36" stroke-width="2" stroke-linecap="round" stroke-linejoin="round"/></svg>