<svg width="44" height="44" fill="none" xmlns="http://www.w3.org/2000/svg"><path d="M26.07 4.28c6.01.905 10.762 5.655 11.664 11.665.165 1.098-.719 2.082-1.83 2.082H25.819a1.834 1.834 0 01-1.834-1.833V6.109c0-1.111.987-1.993 2.085-1.828zm9.1 27.966a13.802 13.802 0 002.564-6.176c.165-1.098-.719-2.083-1.83-2.083h-7.493c-1.633 0-2.451 1.975-1.296 3.13l5.3 5.3c.781.78 2.098.717 2.756-.17zM15.966 12.221a13.92 13.92 0 00-11.57 16.54c1.058 5.44 5.455 9.816 10.898 10.852 4.127.785 8.01-.255 10.985-2.453.891-.658.959-1.978.176-2.761l-7.89-7.89a1.832 1.832 0 01-.538-1.297V14.047c0-1.102-.97-1.987-2.06-1.826z" stroke="#F26D36" stroke-width="2" stroke-linecap="round" stroke-linejoin="round"/></svg>