<svg width="44" height="44" fill="none" xmlns="http://www.w3.org/2000/svg"><path d="M36.667 20.61c0 8.008-5.788 15.514-13.714 17.758a3.509 3.509 0 01-1.906 0C13.12 36.126 7.333 28.618 7.333 20.61v-7.384c0-1.489.9-2.831 2.28-3.394l8.916-3.648a9.159 9.159 0 016.943 0l8.918 3.648a3.666 3.666 0 012.277 3.394v7.384z" stroke="#F26D36" stroke-width="2" stroke-linecap="round" stroke-linejoin="round"/><path d="M24.82 21.863c.8-.897 1.177-2.175.82-3.53a3.728 3.728 0 00-2.628-2.618 3.782 3.782 0 00-4.787 3.643c0 .963.361 1.839.954 2.505.425.476.597 1.123.423 1.738l-.708 2.48a1.833 1.833 0 001.764 2.338h2.688a1.835 1.835 0 001.763-2.338l-.707-2.48c-.18-.615-.006-1.262.418-1.738z" stroke="#F26D36" stroke-width="2" stroke-linecap="round" stroke-linejoin="round"/></svg>