<svg width="44" height="44" fill="none" xmlns="http://www.w3.org/2000/svg"><path d="M33 14.667h-1.833m-5.5 0h-1.834m-7.333 0h1.833M11 38.5h23.833a3.667 3.667 0 003.667-3.667v-22a3.667 3.667 0 00-3.667-3.666H16.5" stroke="#F26D36" stroke-width="2" stroke-linecap="round" stroke-linejoin="round"/><path d="M31.996 26.169v3.164a1.833 1.833 0 01-1.833 1.834h-5.5a1.833 1.833 0 01-1.834-1.834v-3.252a2.292 2.292 0 01.86-1.79l2.237-1.789a2.292 2.292 0 012.863 0l2.347 1.878a2.291 2.291 0 01.86 1.789v0zM11 38.5a5.5 5.5 0 100-11 5.5 5.5 0 000 11z" stroke="#F26D36" stroke-width="2" stroke-linecap="round" stroke-linejoin="round"/><path d="M5.5 33V9.167a5.5 5.5 0 1111 0V33" stroke="#F26D36" stroke-width="2" stroke-linecap="round" stroke-linejoin="round"/><path d="M10.909 32.909a.091.091 0 00.056.084.091.091 0 00.125-.067.091.091 0 00-.09-.11.09.09 0 00-.085.057.089.089 0 00-.006.036z" stroke="#F26D36" stroke-width="2" stroke-linecap="round" stroke-linejoin="round"/></svg>