<svg width="44" height="44" fill="none" xmlns="http://www.w3.org/2000/svg"><path d="M36.029 1.371l-6.875 4.125 4.125 6.875m9.346 2.639a12.374 12.374 0 00-12.62-8.098M7.971 42.621l6.875-4.125-4.125-6.875m-9.346-2.64a12.373 12.373 0 0012.62 8.098m6.63-35.708h-16.5a2.75 2.75 0 00-2.75 2.75v16.5a2.75 2.75 0 002.75 2.75h16.5a2.75 2.75 0 002.75-2.75v-16.5a2.75 2.75 0 00-2.75-2.75zm8.25 19.25h11a2.75 2.75 0 012.75 2.75v16.5a2.75 2.75 0 01-2.75 2.75h-16.5a2.75 2.75 0 01-2.75-2.75v-11" stroke="#F26D36" stroke-width="2" stroke-linecap="round" stroke-linejoin="round"/><path d="M28.875 37.121v-8.25a2.75 2.75 0 115.5 0v8.25m-5.5-2.75h5.5m-22-27.5v2.75m-5.5 0h11m-2.75 0s-2.75 8.25-8.25 8.25m5.498-3.179a7.209 7.209 0 005.5 3.18" stroke="#F26D36" stroke-width="2" stroke-linecap="round" stroke-linejoin="round"/></svg>