<svg width="44" height="44" fill="none" xmlns="http://www.w3.org/2000/svg"><path d="M5.5 11h31.167a3.667 3.667 0 013.666 3.667v22A1.833 1.833 0 0138.5 38.5H18.333a1.833 1.833 0 01-1.833-1.833V33h-11m0 5.5V7.333A1.833 1.833 0 003.667 5.5H1.833M11 16.5h12.833" stroke="#F26D36" stroke-width="2" stroke-linecap="round" stroke-linejoin="round"/><path d="M30.25 27.5h3.667c.506 0 .916-.41.916-.917v-9.166a.917.917 0 00-.916-.917H30.25a.917.917 0 00-.917.917v9.166c0 .507.41.917.917.917zm-18.333 0h3.666c.507 0 .917-.41.917-.917v-3.666a.917.917 0 00-.917-.917h-3.666a.917.917 0 00-.917.917v3.666c0 .507.41.917.917.917zM23.833 22H22m1.833 5.5H22m0 5.5h12.833" stroke="#F26D36" stroke-width="2" stroke-linecap="round" stroke-linejoin="round"/></svg>