<svg width="44" height="44" fill="none" xmlns="http://www.w3.org/2000/svg"><path d="M27.496 42.63h-11l1.375-8.25h8.25l1.375 8.25zm-15.125 0h19.25m5.5-41.25H6.871a5.5 5.5 0 00-5.5 5.5v22a5.5 5.5 0 005.5 5.5h30.25a5.5 5.5 0 005.5-5.5v-22a5.5 5.5 0 00-5.5-5.5z" stroke="#F26D36" stroke-width="2" stroke-linecap="round" stroke-linejoin="round"/><path d="M1.371 20.63l7.279-7.276a1.375 1.375 0 011.945 0l3.555 3.555a1.374 1.374 0 001.945 0L23.37 9.63M1.371 28.88h41.25m-16.5-11v4.126m11-4.126v4.126m-5.5-8.25v8.25" stroke="#F26D36" stroke-width="2" stroke-linecap="round" stroke-linejoin="round"/></svg>