<svg width="171" height="58" fill="none" xmlns="http://www.w3.org/2000/svg"><path d="M21.717 10.196c0-1.728 0-3.399.057-5.127l.058-2.534c0-.864.058-1.67.115-2.535H3.283v7.777c.058 4.09.116 6.566-1.152 7.258H0v7.834h6.51v-2.477h10.886v2.477h6.51v-7.834h-2.132c-.057-1.613-.057-3.226-.057-4.84zM9.505 15.15c.23-1.67.23-3.802.288-6.682V6.394h4.55v8.756H9.504zm31.022-8.583V0H25.09c0 .864.058 1.728.058 2.535l.057 2.592c.058 1.67.058 3.398.058 5.069 0 1.728 0 3.399-.058 5.127l-.057 2.534c0 .864-.058 1.728-.058 2.535h7.72c-.058-.807-.058-1.67-.116-2.535l-.058-2.534V6.452h.98c.748-.058 1.555-.058 2.304-.058.749 0 1.555 0 2.304.058h1.152l1.152.115zM53.03.058c-.69 2.822-1.44 5.645-2.13 8.467h-.173L48.826.058H41.74l5.473 14.977c-.461.172-.922.288-1.383.288-.691 0-1.44-.173-2.073-.461v5.011c1.324.634 2.822.98 4.32.98.749-.058 3.687-.173 5.933-2.42a8.037 8.037 0 001.901-3.053c.576-2.246.98-3.974 1.325-5.127.173-.576.403-1.382.46-1.728.289-1.094.634-2.246.922-3.398l.75-2.535c.287-.864.518-1.67.806-2.534H53.03zm27.987 2.534c.058-.864.058-1.67.115-2.534h-7.776c.058.864.058 1.67.115 2.534l.058 2.535v3.456c-.75.058-1.498.058-2.304.058-.807 0-1.556 0-2.362-.058V5.127l.058-2.535c.057-.864.057-1.67.115-2.534h-7.72c0 .864.058 1.67.058 2.534l.058 2.535c.057 1.728.058 3.398.058 5.127 0 1.67 0 3.398-.058 5.069l-.058 2.592c0 .806-.057 1.67-.057 2.534h7.719c-.058-.864-.058-1.728-.115-2.534l-.058-2.592v-3.399c.806 0 1.555 0 2.362-.058.806.058 1.555.058 2.304.058v3.399l-.058 2.592c-.057.806-.057 1.67-.115 2.534h7.776c-.057-.864-.057-1.728-.115-2.534l-.057-2.592c0-1.67 0-3.399-.058-5.07.058-1.728.058-3.398.058-5.126l.057-2.535zM99.35 7.661l.807-2.592.921-2.534.461-1.268L102 0h-8.122l-.23 1.267-.231 1.268-.518 2.534-.576 2.592h-.346L91.4 5.07l-.519-2.534-.23-1.268L90.422 0h-8.123l.461 1.267.461 1.268.922 2.534.806 2.592.461 1.268.346 1.267-.346 1.267-.46 1.268-.807 2.534-.922 2.592-.46 1.268-.462 1.267h8.123l.23-1.267.23-1.268.519-2.592.576-2.535h.346l.576 2.535.518 2.592.23 1.268.23 1.267H102l-.461-1.267-.461-1.268-.921-2.592-.807-2.535-.46-1.267-.346-1.267.345-1.267.461-1.268z" fill="#000"/><path d="M.256 42.63v-2.543h.468c.161-.146.313-.354.455-.621.144-.27.266-.63.366-1.08.102-.452.169-1.026.202-1.722l.156-3.068h4.319v6.491h.838v2.529h-.838v-1.747H1.094v1.761H.256zm1.52-2.543h3.608v-5.71H2.699l-.114 2.287a13.29 13.29 0 01-.149 1.442 7.406 7.406 0 01-.273 1.14c-.112.329-.24.61-.387.841zm8.106.91c-.346 0-.66-.066-.941-.196a1.615 1.615 0 01-.671-.572c-.166-.25-.249-.553-.249-.909 0-.312.062-.566.185-.76a1.3 1.3 0 01.493-.461c.206-.111.434-.194.682-.249.251-.057.503-.102.757-.135.331-.042.6-.074.806-.096.208-.023.36-.062.454-.117.097-.054.146-.149.146-.284v-.028c0-.35-.096-.623-.288-.817-.19-.194-.477-.291-.863-.291-.4 0-.713.087-.94.262a1.553 1.553 0 00-.48.562l-.796-.285a1.91 1.91 0 01.569-.774c.239-.187.5-.317.78-.39.285-.076.564-.114.839-.114.175 0 .376.021.604.064.23.04.45.124.664.252.215.128.394.32.536.579.142.258.213.604.213 1.037v3.594h-.838v-.739H11.5a1.477 1.477 0 01-.284.38c-.132.135-.309.25-.529.344-.22.095-.489.142-.806.142zm.128-.753c.331 0 .61-.066.838-.196a1.33 1.33 0 00.696-1.154v-.767c-.036.043-.114.082-.235.117a3.956 3.956 0 01-.411.09 18.91 18.91 0 01-.803.106 3.195 3.195 0 00-.61.138 1.052 1.052 0 00-.455.28c-.114.124-.17.292-.17.505 0 .291.107.511.322.66.218.147.494.22.828.22zm7.268-4.83v.781H14.75v4.674h-.838v-5.455h3.366zm3.227 5.568c-.525 0-.979-.116-1.36-.348a2.336 2.336 0 01-.877-.98c-.204-.421-.306-.911-.306-1.47 0-.559.102-1.051.306-1.477a2.41 2.41 0 01.86-1.002c.369-.241.8-.362 1.292-.362.284 0 .565.047.841.142.277.095.53.249.757.462.227.21.408.49.543.838.135.348.203.776.203 1.285v.355h-4.205v-.724h3.352a1.79 1.79 0 00-.184-.824 1.391 1.391 0 00-.519-.572 1.453 1.453 0 00-.788-.21c-.334 0-.623.084-.867.25a1.636 1.636 0 00-.557.639c-.13.262-.195.544-.195.845v.483c0 .412.07.761.213 1.047.144.285.344.501.6.65.255.147.553.22.891.22.22 0 .42-.03.597-.092.18-.064.335-.159.465-.284.13-.128.23-.286.302-.476l.81.227a1.795 1.795 0 01-.43.725c-.201.206-.45.367-.746.483-.296.114-.628.17-.998.17zm5.75 0c-.512 0-.952-.12-1.322-.362a2.361 2.361 0 01-.852-.998c-.199-.424-.298-.908-.298-1.452 0-.554.102-1.043.305-1.467.206-.426.493-.759.86-.998.369-.241.8-.362 1.292-.362.384 0 .73.071 1.037.213.308.142.56.341.757.597.196.255.318.554.365.895h-.838a1.3 1.3 0 00-.426-.66c-.218-.195-.511-.292-.88-.292a1.47 1.47 0 00-.86.256 1.665 1.665 0 00-.572.713 2.645 2.645 0 00-.202 1.076c0 .422.066.789.199 1.101.135.313.324.555.568.728.246.173.535.26.866.26.218 0 .416-.038.593-.114a1.222 1.222 0 00.714-.838h.838a1.941 1.941 0 01-1.086 1.48 2.37 2.37 0 01-1.059.224zm2.94-4.787v-.78h4.432v.78h-1.79v4.674h-.838v-4.674h-1.804zm6.976 4.801c-.346 0-.66-.065-.941-.195a1.615 1.615 0 01-.671-.572c-.166-.25-.249-.553-.249-.909 0-.312.062-.566.185-.76.123-.196.288-.35.494-.461a2.59 2.59 0 01.681-.249c.251-.057.503-.102.757-.135.331-.042.6-.074.806-.096.208-.023.36-.062.454-.117.097-.054.146-.149.146-.284v-.028c0-.35-.096-.623-.288-.817-.19-.194-.477-.291-.863-.291-.4 0-.713.087-.94.262a1.553 1.553 0 00-.48.562l-.796-.285a1.92 1.92 0 01.569-.774c.239-.187.5-.317.78-.39.285-.076.564-.114.839-.114.175 0 .376.021.604.064.23.04.45.124.664.252.215.128.394.32.536.579.142.258.213.604.213 1.037v3.594h-.838v-.739h-.043a1.475 1.475 0 01-.284.38c-.132.135-.309.25-.529.344-.22.095-.489.142-.806.142zm.128-.752c.331 0 .61-.066.838-.196a1.33 1.33 0 00.696-1.154v-.767c-.036.043-.114.082-.234.117a3.948 3.948 0 01-.412.09 18.917 18.917 0 01-.803.106 3.195 3.195 0 00-.61.138 1.052 1.052 0 00-.455.28c-.114.124-.17.292-.17.505 0 .291.107.511.322.66.218.147.494.22.828.22zm7.552-2.486v.781H40.84v-.781h3.011zm-2.812-2.344v5.455H40.2v-5.455h.838zm3.451 0v5.455h-.838v-5.455h.838zm3.747 5.568c-.512 0-.952-.12-1.321-.362a2.36 2.36 0 01-.852-.998c-.2-.424-.299-.908-.299-1.452 0-.554.102-1.043.306-1.467.206-.426.492-.759.859-.998.37-.241.8-.362 1.293-.362.383 0 .729.071 1.037.213.307.142.56.341.756.597.197.255.318.554.366.895h-.838a1.3 1.3 0 00-.426-.66c-.218-.195-.512-.292-.881-.292-.327 0-.613.085-.86.256a1.665 1.665 0 00-.571.713 2.643 2.643 0 00-.203 1.076c0 .422.067.789.2 1.101.134.313.324.555.567.728.247.173.535.26.867.26.218 0 .415-.038.593-.114a1.222 1.222 0 00.714-.838h.838a1.941 1.941 0 01-1.087 1.48 2.37 2.37 0 01-1.058.224zm3.37-.113v-5.455h.838v2.372h.554l1.96-2.372h1.08l-2.202 2.628 2.23 2.827h-1.08l-1.79-2.301h-.752v2.3h-.838zm6.21-1.236l2.627-4.219h.966v5.455h-.838v-4.22l-2.614 4.22h-.98v-5.455h.838v4.219zm5.966 0l2.628-4.219h.966v5.455h-.838v-4.22l-2.614 4.22h-.98v-5.455h.838v4.219zm2.074-6.037h.781c0 .383-.133.697-.398.941s-.625.366-1.08.366c-.447 0-.803-.122-1.068-.366-.263-.244-.394-.558-.394-.941h.78a.8.8 0 00.154.486c.104.14.28.21.529.21.248 0 .426-.07.532-.21a.768.768 0 00.164-.486zm10.37 0v.781h-3.509v6.492h-.88v-7.273h4.389zm2.674 7.386c-.492 0-.925-.117-1.296-.351a2.387 2.387 0 01-.867-.984c-.206-.421-.309-.914-.309-1.477 0-.568.103-1.064.31-1.488.208-.424.496-.753.866-.987.371-.235.803-.352 1.296-.352.492 0 .923.117 1.293.352.371.234.66.563.866.987.208.424.313.92.313 1.488 0 .563-.105 1.056-.313 1.477a2.35 2.35 0 01-.867.984c-.369.234-.8.351-1.292.351zm0-.753c.374 0 .682-.095.923-.287.242-.192.42-.444.536-.757.116-.312.174-.65.174-1.015 0-.365-.058-.705-.174-1.02a1.717 1.717 0 00-.536-.763c-.241-.194-.549-.291-.923-.291s-.682.097-.923.291c-.242.194-.42.449-.537.764a2.926 2.926 0 00-.174 1.019c0 .364.058.703.174 1.015.116.313.295.565.537.757.241.192.549.287.923.287zm5.967.753c-.512 0-.952-.12-1.321-.362a2.361 2.361 0 01-.853-.998c-.198-.424-.298-.908-.298-1.452 0-.554.102-1.043.305-1.467.207-.426.493-.759.86-.998.37-.241.8-.362 1.292-.362.384 0 .73.071 1.037.213.308.142.56.341.757.597.196.255.318.554.366.895h-.839a1.3 1.3 0 00-.426-.66c-.217-.195-.511-.292-.88-.292-.327 0-.613.085-.86.256a1.666 1.666 0 00-.571.713 2.645 2.645 0 00-.203 1.076c0 .422.067.789.2 1.101.134.313.323.555.567.728.246.173.535.26.867.26.218 0 .415-.038.593-.114a1.223 1.223 0 00.713-.838h.839a1.94 1.94 0 01-1.087 1.48 2.37 2.37 0 01-1.058.224zm3.91 1.932a1.835 1.835 0 01-.611-.1l.213-.738c.203.052.383.071.54.057a.647.647 0 00.415-.21c.123-.123.236-.323.337-.6l.157-.426-2.017-5.483h.909l1.505 4.347h.057l1.506-4.347h.909l-2.315 6.25a2.365 2.365 0 01-.387.7 1.452 1.452 0 01-.537.415c-.2.09-.428.135-.681.135zm3.985-.483v-2.344h.454a2.088 2.088 0 00.498-.855c.061-.187.113-.415.156-.682.042-.27.08-.596.113-.977l.185-2.159h3.466v4.673h.838v2.344h-.838V40.87H93.6v1.562h-.838zm1.406-2.344h2.628v-3.892H94.95l-.142 1.378a15.22 15.22 0 01-.22 1.495c-.087.426-.227.766-.419 1.02zm7.022.91a2.22 2.22 0 01-.942-.196 1.616 1.616 0 01-.67-.572c-.166-.25-.25-.553-.25-.909 0-.312.062-.566.185-.76a1.31 1.31 0 01.494-.461 2.62 2.62 0 01.682-.249 8.34 8.34 0 01.756-.135c.332-.042.6-.074.806-.096.209-.023.36-.062.455-.117.097-.054.145-.149.145-.284v-.028c0-.35-.095-.623-.287-.817-.19-.194-.477-.291-.863-.291-.4 0-.714.087-.941.262a1.565 1.565 0 00-.48.562l-.795-.285c.142-.33.331-.589.568-.774.239-.187.5-.317.781-.39.284-.076.564-.114.838-.114.176 0 .377.021.604.064.23.04.451.124.664.252.216.128.394.32.536.579.142.258.214.604.214 1.037v3.594h-.839v-.739h-.042a1.493 1.493 0 01-.284.38c-.133.135-.309.25-.529.344a2.041 2.041 0 01-.806.142zm.127-.753c.332 0 .611-.066.838-.196a1.329 1.329 0 00.696-1.154v-.767c-.035.043-.113.082-.234.117a3.95 3.95 0 01-.412.09 18.845 18.845 0 01-.802.106 3.187 3.187 0 00-.611.138 1.054 1.054 0 00-.455.28c-.113.124-.17.292-.17.505 0 .291.108.511.323.66.218.147.494.22.827.22zm3.902 2.67v-7.5h.81v.867h.099a7.73 7.73 0 01.256-.363c.111-.149.27-.281.476-.397.208-.119.49-.178.845-.178.459 0 .864.115 1.214.344.351.23.624.556.821.977.196.422.295.919.295 1.492 0 .577-.099 1.078-.295 1.502a2.33 2.33 0 01-.817.98c-.348.23-.749.344-1.204.344-.35 0-.631-.058-.841-.174a1.563 1.563 0 01-.487-.401 5.423 5.423 0 01-.263-.376h-.071v2.883h-.838zm.824-4.773c0 .412.06.776.181 1.09.121.313.297.558.529.736.232.175.516.262.853.262.35 0 .642-.092.877-.276.236-.188.414-.439.532-.753.121-.318.181-.67.181-1.059 0-.383-.059-.729-.177-1.037a1.6 1.6 0 00-.529-.735c-.235-.182-.529-.273-.884-.273-.341 0-.628.086-.86.26a1.55 1.55 0 00-.525.716 2.935 2.935 0 00-.178 1.07zm7.486 2.841c-.512 0-.952-.12-1.321-.362a2.35 2.35 0 01-.852-.998c-.199-.424-.299-.908-.299-1.452 0-.554.102-1.043.306-1.467.206-.426.492-.759.859-.998.369-.241.8-.362 1.293-.362.383 0 .729.071 1.037.213.307.142.559.341.756.597.196.255.318.554.366.895h-.838a1.3 1.3 0 00-.426-.66c-.218-.195-.512-.292-.881-.292-.327 0-.613.085-.86.256a1.668 1.668 0 00-.571.713 2.643 2.643 0 00-.203 1.076c0 .422.067.789.199 1.101.135.313.325.555.568.728.247.173.535.26.867.26.218 0 .415-.038.593-.114a1.226 1.226 0 00.714-.838h.838a1.95 1.95 0 01-.352.87 1.97 1.97 0 01-.735.61 2.37 2.37 0 01-1.058.224zm2.94-4.787v-.78h4.432v.78h-1.79v4.674h-.838v-4.674h-1.804zm5.654 4.674v-5.455h2.231c.587 0 1.053.133 1.399.398.345.265.518.615.518 1.051 0 .331-.098.588-.295.77a1.56 1.56 0 01-.756.366c.201.029.397.1.586.213.192.114.35.27.476.47.125.196.188.437.188.724 0 .279-.071.529-.213.749-.142.22-.346.394-.611.522s-.582.192-.952.192h-2.571zm.796-.767h1.775c.289 0 .515-.069.679-.206a.695.695 0 00.245-.561c0-.282-.082-.504-.245-.665-.164-.163-.39-.245-.679-.245h-1.775v1.677zm0-2.401h1.435c.224 0 .417-.03.578-.092a.82.82 0 00.37-.27.688.688 0 00.131-.42.617.617 0 00-.288-.539c-.191-.133-.455-.199-.791-.199h-1.435v1.52zm7.107 3.281c-.526 0-.979-.116-1.36-.348a2.337 2.337 0 01-.878-.98c-.203-.421-.305-.911-.305-1.47 0-.559.102-1.051.305-1.477a2.41 2.41 0 01.86-1.002c.369-.241.8-.362 1.292-.362.284 0 .565.047.842.142.277.095.529.249.756.462.228.21.409.49.544.838.135.348.202.776.202 1.285v.355h-4.204v-.724h3.352a1.79 1.79 0 00-.185-.824 1.392 1.392 0 00-.518-.572 1.456 1.456 0 00-.789-.21c-.333 0-.622.084-.866.25a1.639 1.639 0 00-.558.639 1.88 1.88 0 00-.195.845v.483c0 .412.071.761.213 1.047.145.285.345.501.6.65.256.147.553.22.892.22.22 0 .419-.03.596-.092.18-.064.335-.159.465-.284a1.28 1.28 0 00.302-.476l.81.227a1.796 1.796 0 01-.43.725c-.201.206-.45.367-.745.483a2.76 2.76 0 01-.998.17zm7.184-3.224v.781h-3.012v-.781h3.012zm-2.813-2.344v5.455h-.838v-5.455h.838zm3.452 0v5.455h-.838v-5.455h.838zm5.181 2.344v.781h-3.011v-.781h3.011zm-2.813-2.344v5.455h-.838v-5.455h.838zm3.452 0v5.455h-.838v-5.455h.838zm2.255 1.974h1.563c.639 0 1.128.163 1.466.487.339.324.508.735.508 1.232 0 .327-.076.624-.227.892a1.65 1.65 0 01-.668.635c-.293.157-.653.235-1.079.235h-2.287v-5.455h.838v4.673h1.449c.331 0 .603-.087.816-.262.213-.176.32-.4.32-.675a.888.888 0 00-.32-.707c-.213-.182-.485-.273-.816-.273h-1.563v-.782zm4.403 3.48v-5.454h.839v5.455h-.839zm3.211-1.235l2.628-4.219h.965v5.455h-.838v-4.22l-2.613 4.22h-.98v-5.455h.838v4.219zm2.074-6.037h.781c0 .383-.133.697-.398.941s-.625.366-1.079.366c-.448 0-.804-.122-1.069-.366a1.226 1.226 0 01-.395-.941h.782c0 .185.051.347.152.486.105.14.281.21.53.21.248 0 .426-.07.532-.21a.768.768 0 00.164-.486zM1.307 56.914a1.834 1.834 0 01-.611-.1l.213-.738c.204.052.384.071.54.057a.647.647 0 00.415-.21c.123-.123.236-.323.338-.6l.156-.426-2.017-5.483h.909l1.506 4.347h.057l1.505-4.347h.91l-2.316 6.25a2.365 2.365 0 01-.387.7 1.451 1.451 0 01-.536.415c-.202.09-.429.135-.682.135zm8.677-5.156v.781H6.973v-.781h3.011zm-2.812-2.344v5.455h-.839v-5.455h.839zm3.451 0v5.455h-.838v-5.455h.838zm2.369 4.219l2.628-4.219h.966v5.455h-.838v-4.22l-2.614 4.22h-.98v-5.455h.838v4.219zm5.129 1.236v-5.455h2.23c.587 0 1.053.133 1.399.398.346.265.518.615.518 1.051 0 .331-.098.588-.294.77-.197.18-.45.302-.757.366.201.029.397.1.586.213.192.114.35.27.476.47.125.196.188.437.188.724 0 .279-.07.529-.213.749a1.46 1.46 0 01-.61.522c-.266.128-.583.192-.952.192H18.12zm.795-.767h1.776c.288 0 .514-.069.678-.206a.694.694 0 00.245-.561c0-.282-.082-.504-.245-.665-.164-.163-.39-.245-.678-.245h-1.776v1.677zm0-2.401h1.435c.225 0 .418-.03.579-.092a.818.818 0 00.369-.27.685.685 0 00.131-.42.618.618 0 00-.287-.539c-.192-.133-.456-.199-.792-.199h-1.435v1.52zm7.107 3.281c-.526 0-.98-.116-1.36-.348a2.337 2.337 0 01-.878-.98c-.203-.421-.305-.911-.305-1.47 0-.559.102-1.051.305-1.477a2.41 2.41 0 01.86-1.002c.37-.241.8-.362 1.293-.362.284 0 .564.047.841.142.277.095.53.249.756.462.228.21.409.49.544.838.135.348.202.776.202 1.285v.355h-4.204v-.724h3.352c0-.308-.062-.582-.185-.824a1.391 1.391 0 00-.518-.572 1.453 1.453 0 00-.788-.21c-.334 0-.623.084-.867.25a1.635 1.635 0 00-.558.639c-.13.262-.195.544-.195.845v.483c0 .412.071.761.213 1.047.145.285.345.501.6.65.256.147.553.22.892.22.22 0 .419-.03.596-.092.18-.064.335-.159.465-.284a1.29 1.29 0 00.302-.476l.81.227a1.794 1.794 0 01-.43.725c-.2.206-.45.367-.745.483a2.76 2.76 0 01-.998.17zm3.533 1.932v-7.5h.81v.867h.1a7.47 7.47 0 01.255-.363c.111-.149.27-.281.476-.397.208-.119.49-.178.845-.178.46 0 .864.115 1.214.344.35.23.624.556.82.977.197.422.295.919.295 1.492 0 .577-.098 1.078-.294 1.502a2.325 2.325 0 01-.817.98c-.348.23-.75.344-1.204.344-.35 0-.63-.058-.841-.174a1.56 1.56 0 01-.487-.401 5.375 5.375 0 01-.263-.376h-.07v2.883h-.839zm.824-4.773c0 .412.06.776.181 1.09.12.313.297.558.53.736.231.175.515.262.851.262.35 0 .643-.092.878-.276.236-.188.414-.439.532-.753.121-.318.181-.67.181-1.059 0-.383-.059-.729-.177-1.037a1.602 1.602 0 00-.53-.735c-.234-.182-.528-.273-.884-.273-.34 0-.627.086-.859.26a1.55 1.55 0 00-.525.716 2.95 2.95 0 00-.178 1.07zm7.486 2.841c-.512 0-.952-.12-1.321-.362a2.36 2.36 0 01-.852-.998c-.2-.424-.299-.908-.299-1.452 0-.554.102-1.043.306-1.467.206-.426.492-.759.859-.998.37-.241.8-.362 1.293-.362.383 0 .729.071 1.037.213.307.142.56.341.756.597.196.255.318.554.366.895h-.838a1.3 1.3 0 00-.427-.66c-.217-.195-.51-.292-.88-.292-.327 0-.613.085-.86.256a1.665 1.665 0 00-.571.713 2.643 2.643 0 00-.203 1.076c0 .422.066.789.2 1.101.134.313.323.555.567.728.246.173.535.26.867.26.218 0 .415-.038.593-.114a1.222 1.222 0 00.714-.838h.838a1.943 1.943 0 01-1.087 1.48 2.37 2.37 0 01-1.058.224zm4.208-1.35l2.628-4.218h.966v5.455h-.838v-4.22l-2.614 4.22h-.98v-5.455h.838v4.219zm4.386-3.437v-.78h4.432v.78h-1.79v4.674h-.838v-4.674H46.46zm7.658 4.787c-.525 0-.979-.116-1.36-.348a2.337 2.337 0 01-.877-.98c-.203-.421-.305-.911-.305-1.47 0-.559.102-1.051.305-1.477a2.41 2.41 0 01.86-1.002c.369-.241.8-.362 1.292-.362.284 0 .565.047.842.142.277.095.529.249.756.462.227.21.409.49.544.838.135.348.202.776.202 1.285v.355h-4.205v-.724h3.353c0-.308-.062-.582-.185-.824a1.391 1.391 0 00-.518-.572 1.453 1.453 0 00-.789-.21c-.334 0-.622.084-.866.25a1.635 1.635 0 00-.558.639c-.13.262-.195.544-.195.845v.483c0 .412.07.761.213 1.047.144.285.344.501.6.65.256.147.553.22.891.22.22 0 .42-.03.597-.092.18-.064.335-.159.465-.284a1.29 1.29 0 00.302-.476l.81.227a1.794 1.794 0 01-.43.725c-.201.206-.45.367-.746.483-.296.114-.628.17-.998.17zm3.026-4.787v-.78h4.432v.78h-1.79v4.674h-.838v-4.674h-1.804zm12.117 1.563v.781H66.25v-.781h3.011zm-2.812-2.344v5.455h-.838v-5.455h.838zm3.452 0v5.455h-.838v-5.455h.838zm3.135 5.582c-.345 0-.66-.065-.94-.195a1.615 1.615 0 01-.672-.572c-.166-.25-.249-.553-.249-.909 0-.312.062-.566.185-.76.123-.196.288-.35.494-.461.206-.111.433-.194.681-.249a8.33 8.33 0 01.757-.135c.331-.042.6-.074.806-.096.208-.023.36-.062.455-.117.097-.054.145-.149.145-.284v-.028c0-.35-.096-.623-.287-.817-.19-.194-.478-.291-.863-.291-.4 0-.714.087-.942.262a1.555 1.555 0 00-.479.562l-.795-.285a1.91 1.91 0 01.568-.774c.239-.187.5-.317.781-.39.284-.076.564-.114.838-.114.175 0 .377.021.604.064.23.04.45.124.664.252.215.128.394.32.536.579.142.258.213.604.213 1.037v3.594h-.838v-.739h-.042a1.475 1.475 0 01-.285.38 1.61 1.61 0 01-.529.344c-.22.095-.489.142-.806.142zm.128-.752c.332 0 .61-.066.838-.196a1.33 1.33 0 00.696-1.154v-.767c-.035.043-.113.082-.234.117a3.956 3.956 0 01-.412.09 18.91 18.91 0 01-.803.106 3.195 3.195 0 00-.61.138 1.053 1.053 0 00-.455.28c-.114.124-.17.292-.17.505 0 .291.107.511.323.66.218.147.493.22.827.22zm3.902 2.67v-7.5h.81v.867h.099c.062-.095.147-.216.256-.363.11-.149.27-.281.476-.397.208-.119.49-.178.845-.178.459 0 .864.115 1.214.344.35.23.624.556.82.977.197.422.295.919.295 1.492 0 .577-.098 1.078-.294 1.502a2.326 2.326 0 01-.817.98c-.348.23-.75.344-1.204.344-.35 0-.631-.058-.842-.174a1.56 1.56 0 01-.486-.401 5.368 5.368 0 01-.263-.376h-.071v2.883h-.838zm.824-4.773c0 .412.06.776.18 1.09.122.313.298.558.53.736.232.175.516.262.852.262.35 0 .643-.092.877-.276a1.7 1.7 0 00.533-.753c.12-.318.181-.67.181-1.059 0-.383-.059-.729-.177-1.037a1.602 1.602 0 00-.53-.735c-.234-.182-.529-.273-.884-.273-.34 0-.627.086-.86.26-.231.17-.406.409-.525.716a2.948 2.948 0 00-.177 1.07zm7.486 2.841c-.493 0-.925-.117-1.297-.351a2.387 2.387 0 01-.866-.984c-.206-.421-.31-.914-.31-1.477 0-.568.104-1.064.31-1.488.208-.424.497-.753.866-.987.372-.235.804-.352 1.297-.352.492 0 .923.117 1.292.352.372.234.66.563.867.987.208.424.312.92.312 1.488 0 .563-.104 1.056-.312 1.477a2.35 2.35 0 01-.867.984c-.37.234-.8.351-1.293.351zm0-.753c.374 0 .681-.095.923-.287a1.7 1.7 0 00.536-.757c.116-.312.174-.65.174-1.015 0-.365-.058-.705-.174-1.02a1.717 1.717 0 00-.536-.763c-.242-.194-.55-.291-.924-.291s-.681.097-.923.291c-.241.194-.42.449-.536.764a2.926 2.926 0 00-.174 1.019c0 .364.058.703.174 1.015a1.7 1.7 0 00.536.757c.242.192.55.287.924.287zm3.168 2.202v-2.344h.455a2.092 2.092 0 00.497-.855c.061-.187.113-.415.156-.682.043-.27.08-.596.114-.977l.184-2.159h3.466v4.673h.838v2.344h-.838V54.87h-4.034v1.562h-.838zm1.406-2.344h2.628v-3.892h-1.847l-.141 1.378c-.06.57-.133 1.07-.22 1.495-.088.426-.228.766-.42 1.02zm9.067-2.33v.782h-3.011v-.781h3.011zm-2.812-2.343v5.455h-.838v-5.455h.838zm3.451 0v5.455h-.838v-5.455h.838zm3.747 5.568c-.493 0-.925-.117-1.296-.351a2.389 2.389 0 01-.867-.984c-.206-.421-.309-.914-.309-1.477 0-.568.103-1.064.309-1.488a2.38 2.38 0 01.867-.987c.371-.235.803-.352 1.296-.352.492 0 .923.117 1.292.352.372.234.661.563.867.987.208.424.312.92.312 1.488 0 .563-.104 1.056-.312 1.477a2.35 2.35 0 01-.867.984c-.369.234-.8.351-1.292.351zm0-.753c.374 0 .682-.095.923-.287.242-.192.42-.444.536-.757.116-.312.174-.65.174-1.015 0-.365-.058-.705-.174-1.02a1.713 1.713 0 00-.536-.763c-.241-.194-.549-.291-.923-.291s-.682.097-.923.291a1.715 1.715 0 00-.537.764 2.926 2.926 0 00-.174 1.019c0 .364.058.703.174 1.015.116.313.295.565.537.757.241.192.549.287.923.287zm7.117-4.815v.781h-2.528v4.674h-.838v-5.455h3.366zm3.156 5.568c-.492 0-.924-.117-1.296-.351a2.387 2.387 0 01-.866-.984c-.206-.421-.309-.914-.309-1.477 0-.568.103-1.064.309-1.488.208-.424.497-.753.866-.987.372-.235.804-.352 1.296-.352.493 0 .924.117 1.293.352.372.234.66.563.866.987.209.424.313.92.313 1.488 0 .563-.104 1.056-.313 1.477-.206.422-.494.75-.866.984-.369.234-.8.351-1.293.351zm0-.753c.374 0 .682-.095.924-.287a1.7 1.7 0 00.536-.757c.116-.312.174-.65.174-1.015 0-.365-.058-.705-.174-1.02a1.72 1.72 0 00-.536-.763c-.242-.194-.55-.291-.924-.291s-.682.097-.923.291a1.72 1.72 0 00-.536.764 2.926 2.926 0 00-.174 1.019c0 .364.058.703.174 1.015a1.7 1.7 0 00.536.757c.241.192.549.287.923.287zm7.189-4.815l1.307 2.23 1.306-2.23h.966l-1.761 2.727 1.761 2.728h-.966l-1.306-2.117-1.307 2.117h-.966l1.733-2.728-1.733-2.727h.966zm6.766 5.568c-.492 0-.924-.117-1.296-.351a2.387 2.387 0 01-.866-.984c-.206-.421-.309-.914-.309-1.477 0-.568.103-1.064.309-1.488.208-.424.497-.753.866-.987.372-.235.804-.352 1.296-.352.493 0 .924.117 1.293.352.372.234.661.563.866.987.209.424.313.92.313 1.488 0 .563-.104 1.056-.313 1.477-.205.422-.494.75-.866.984-.369.234-.8.351-1.293.351zm0-.753c.374 0 .682-.095.924-.287a1.7 1.7 0 00.536-.757c.116-.312.174-.65.174-1.015 0-.365-.058-.705-.174-1.02a1.72 1.72 0 00-.536-.763c-.242-.194-.55-.291-.924-.291s-.681.097-.923.291a1.72 1.72 0 00-.536.764 2.926 2.926 0 00-.174 1.019c0 .364.058.703.174 1.015a1.7 1.7 0 00.536.757c.242.192.549.287.923.287zm3.41-.752h.895c.019.246.13.433.334.56.206.129.474.192.803.192.336 0 .623-.068.863-.206.239-.14.358-.364.358-.674a.838.838 0 00-.135-.476.885.885 0 00-.38-.32 1.364 1.364 0 00-.579-.113h-.937v-.753h.937c.334 0 .58-.076.739-.227a.748.748 0 00.242-.569.73.73 0 00-.26-.586c-.172-.149-.418-.223-.735-.223-.319 0-.586.072-.799.216-.213.142-.325.326-.337.55h-.881c.01-.293.1-.552.27-.777.171-.227.403-.405.696-.533.294-.13.63-.195 1.009-.195.383 0 .716.068.998.202.284.133.503.314.656.544.157.227.235.485.235.774 0 .308-.087.556-.259.746-.173.19-.39.324-.65.404v.057c.206.015.384.08.536.2.154.115.273.268.359.457.085.187.127.395.127.622 0 .331-.088.62-.266.866a1.734 1.734 0 01-.731.568 2.682 2.682 0 01-1.062.2c-.386 0-.732-.063-1.037-.189a1.796 1.796 0 01-.728-.529 1.316 1.316 0 01-.281-.788zm8.564 1.392V50.18h-1.449c-.327 0-.583.076-.771.227-.187.152-.28.36-.28.625 0 .26.084.466.252.615.171.149.404.223.7.223h1.761v.782h-1.761c-.37 0-.688-.065-.956-.196a1.435 1.435 0 01-.618-.557 1.673 1.673 0 01-.216-.867c0-.336.076-.625.227-.866a1.48 1.48 0 01.65-.558c.284-.13.621-.195 1.012-.195h2.244v5.455h-.795zm-3.636 0l1.548-2.713h.909l-1.548 2.713h-.909zm6.808-1.236l2.628-4.219h.966v5.455h-.838v-4.22l-2.614 4.22h-.98v-5.455h.838v4.219zm2.074-6.037h.781c0 .383-.132.697-.398.941-.265.244-.625.366-1.079.366-.448 0-.804-.122-1.069-.366-.263-.244-.394-.558-.394-.941h.781a.8.8 0 00.153.486c.104.14.28.21.529.21.248 0 .426-.07.533-.21a.773.773 0 00.163-.486zm5.271 7.386c-.512 0-.952-.12-1.321-.362a2.358 2.358 0 01-.853-.998c-.199-.424-.298-.908-.298-1.452 0-.554.102-1.043.305-1.467.206-.426.493-.759.86-.998.369-.241.8-.362 1.292-.362.384 0 .73.071 1.037.213.308.142.56.341.757.597.196.255.318.554.366.895h-.839a1.294 1.294 0 00-.426-.66c-.217-.195-.511-.292-.88-.292a1.47 1.47 0 00-.86.256 1.66 1.66 0 00-.571.713 2.643 2.643 0 00-.203 1.076c0 .422.066.789.199 1.101.135.313.324.555.568.728.246.173.535.26.867.26a1.5 1.5 0 00.593-.114c.177-.076.328-.185.451-.327a1.25 1.25 0 00.262-.511h.839a1.95 1.95 0 01-.352.87 1.97 1.97 0 01-.735.61 2.37 2.37 0 01-1.058.224zm2.94-4.787v-.78h4.432v.78h-1.79v4.674h-.838v-4.674h-1.804zm5.654 4.674v-5.455h2.23c.587 0 1.054.133 1.4.398.345.265.518.615.518 1.051 0 .331-.098.588-.295.77a1.56 1.56 0 01-.756.366c.201.029.396.1.586.213.192.114.35.27.476.47.125.196.188.437.188.724 0 .279-.071.529-.213.749-.142.22-.346.394-.611.522s-.582.192-.952.192h-2.571zm.796-.767h1.775c.289 0 .515-.069.679-.206a.695.695 0 00.245-.561c0-.282-.082-.504-.245-.665-.164-.163-.39-.245-.679-.245h-1.775v1.677zm0-2.401h1.434c.225 0 .418-.03.579-.092a.825.825 0 00.37-.27.688.688 0 00.131-.42.617.617 0 00-.288-.539c-.191-.133-.455-.199-.792-.199h-1.434v1.52zm6.425 3.295c-.346 0-.66-.065-.941-.195a1.618 1.618 0 01-.672-.572c-.165-.25-.248-.553-.248-.909 0-.312.061-.566.184-.76a1.31 1.31 0 01.494-.461 2.62 2.62 0 01.682-.249 8.34 8.34 0 01.756-.135c.332-.042.6-.074.806-.096.209-.023.36-.062.455-.117.097-.054.146-.149.146-.284v-.028c0-.35-.096-.623-.288-.817-.189-.194-.477-.291-.863-.291-.4 0-.714.087-.941.262-.227.176-.387.363-.479.562l-.796-.285c.142-.33.332-.589.568-.774.239-.187.5-.317.781-.39.285-.076.564-.114.839-.114.175 0 .376.021.603.064.23.04.451.124.664.252.216.128.394.32.537.579.142.258.213.604.213 1.037v3.594h-.838v-.739h-.043a1.493 1.493 0 01-.284.38c-.133.135-.309.25-.529.344-.22.095-.489.142-.806.142zm.127-.752c.332 0 .611-.066.839-.196a1.333 1.333 0 00.696-1.154v-.767c-.036.043-.114.082-.235.117a3.95 3.95 0 01-.412.09 18.845 18.845 0 01-.802.106 3.187 3.187 0 00-.611.138 1.054 1.054 0 00-.455.28c-.113.124-.17.292-.17.505 0 .291.108.511.323.66.218.147.494.22.827.22z" fill="#797979"/></svg>