<svg width="44" height="44" fill="none" xmlns="http://www.w3.org/2000/svg"><path d="M22 30.917c-3.718-3.72-9.322-4.404-13.735-2.051-1.253.667-2.765-.156-2.765-1.575V10.622c0-1.166.539-2.288 1.489-2.964C11.544 4.409 17.912 4.828 22 8.918c4.088-4.09 10.456-4.509 15.011-1.26.95.676 1.489 1.798 1.489 2.964v16.669c0 1.419-1.513 2.244-2.765 1.575-4.412-2.352-10.017-1.669-13.735 2.051zM8.265 36.448C12.677 34.096 18.282 34.78 22 38.5c3.718-3.72 9.323-4.404 13.735-2.052M22 30.917v-22" stroke="#225CF3" stroke-width="2" stroke-linecap="round" stroke-linejoin="round"/></svg>