<svg width="44" height="44" fill="none" xmlns="http://www.w3.org/2000/svg"><path d="M20.167 38.5H11A5.5 5.5 0 015.5 33V17.417a4.584 4.584 0 014.583-4.584h23.834a4.584 4.584 0 014.583 4.584v2.75m-10.083-7.334V9.167A3.667 3.667 0 0024.75 5.5h-5.5a3.667 3.667 0 00-3.667 3.667v3.666M22 23.834H5.5" stroke="#225CF3" stroke-width="2" stroke-linecap="round" stroke-linejoin="round"/><path d="M33 40.333a7.333 7.333 0 100-14.666 7.333 7.333 0 000 14.666z" stroke="#225CF3" stroke-width="2" stroke-linecap="round" stroke-linejoin="round"/><path d="M30.708 32.793l1.834 1.833 2.75-2.75" stroke="#225CF3" stroke-width="2" stroke-linecap="round" stroke-linejoin="round"/></svg>