<svg width="44" height="44" fill="none" xmlns="http://www.w3.org/2000/svg"><path d="M17.417 18.333a3.667 3.667 0 100-7.333 3.667 3.667 0 000 7.333zm0-7.333a3.667 3.667 0 110 7.333M25.667 11a3.667 3.667 0 010 7.333m0-7.333a3.667 3.667 0 010 7.333m-1.834 8.25a3.667 3.667 0 00-3.666-3.666h-5.5A3.667 3.667 0 0011 26.582m22 .001a3.667 3.667 0 00-3.667-3.666H27.5" stroke="#225CF3" stroke-width="2" stroke-linecap="round" stroke-linejoin="round"/><path d="M22.93 33H33a5.5 5.5 0 005.5-5.5V11A5.5 5.5 0 0033 5.5H11A5.5 5.5 0 005.5 11v16.5A5.5 5.5 0 0011 33h3.68v4.479a1.019 1.019 0 001.656.796L22.93 33z" stroke="#225CF3" stroke-width="2" stroke-linecap="round" stroke-linejoin="round"/></svg>