<svg width="33" height="34" fill="none" xmlns="http://www.w3.org/2000/svg"><g clip-path="url(#clip0_139_1773)"><path d="M0 16.34C0 8.873 0 5.14 2.32 2.82 4.64.5 8.373.5 15.84.5h1.32c7.467 0 11.2 0 13.52 2.32C33 5.14 33 8.873 33 16.34v1.32c0 7.467 0 11.2-2.32 13.52-2.32 2.32-6.053 2.32-13.52 2.32h-1.32c-7.467 0-11.2 0-13.52-2.32C0 28.86 0 25.127 0 17.66v-1.32z" fill="#07F"/><path d="M17.559 24.274c-7.522 0-11.811-5.156-11.99-13.736h3.767c.124 6.297 2.902 8.965 5.101 9.515v-9.515h3.548v5.43c2.173-.233 4.455-2.708 5.225-5.43h3.547c-.59 3.355-3.066 5.83-4.826 6.847 1.76.825 4.58 2.984 5.652 6.889h-3.905c-.84-2.613-2.93-4.634-5.693-4.909v4.909h-.426z" fill="#fff"/></g><defs><clipPath id="clip0_139_1773"><path fill="#fff" transform="translate(0 .5)" d="M0 0h33v33H0z"/></clipPath></defs></svg>