<svg width="44" height="44" viewBox="0 0 44 44" fill="none" xmlns="http://www.w3.org/2000/svg">
<path d="M33 14.6667H31.1666" stroke="#F26D36" stroke-width="2" stroke-linecap="round" stroke-linejoin="round"/>
<path d="M25.6666 14.6667H23.8333" stroke="#F26D36" stroke-width="2" stroke-linecap="round" stroke-linejoin="round"/>
<path d="M16.5 14.6667H18.3333" stroke="#F26D36" stroke-width="2" stroke-linecap="round" stroke-linejoin="round"/>
<path d="M11 38.5001H34.8333C35.8058 38.5001 36.7384 38.1138 37.4261 37.4261C38.1137 36.7385 38.5 35.8059 38.5 34.8334V12.8334C38.5 11.861 38.1137 10.9283 37.4261 10.2407C36.7384 9.55306 35.8058 9.16675 34.8333 9.16675H16.5" stroke="#F26D36" stroke-width="2" stroke-linecap="round" stroke-linejoin="round"/>
<path d="M31.996 26.169V29.3333C31.996 29.8196 31.8029 30.2859 31.459 30.6297C31.1152 30.9735 30.6489 31.1667 30.1627 31.1667H24.6627C24.1764 31.1667 23.7101 30.9735 23.3663 30.6297C23.0225 30.2859 22.8293 29.8196 22.8293 29.3333V26.081C22.8293 25.7373 22.9067 25.398 23.0555 25.0883C23.2044 24.7785 23.4211 24.5062 23.6895 24.2915L25.9261 22.5021C26.3325 22.1771 26.8373 22 27.3577 22C27.878 22 28.3829 22.1771 28.7892 22.5021L31.1359 24.3795C31.4043 24.5942 31.6209 24.8665 31.7698 25.1763C31.9187 25.486 31.996 25.8253 31.996 26.169V26.169Z" stroke="#F26D36" stroke-width="2" stroke-linecap="round" stroke-linejoin="round"/>
<path d="M11 38.5C14.0376 38.5 16.5 36.0376 16.5 33C16.5 29.9624 14.0376 27.5 11 27.5C7.96243 27.5 5.5 29.9624 5.5 33C5.5 36.0376 7.96243 38.5 11 38.5Z" stroke="#F26D36" stroke-width="2" stroke-linecap="round" stroke-linejoin="round"/>
<path d="M5.5 33.0001V9.16675C5.5 7.70806 6.07946 6.30911 7.11091 5.27766C8.14236 4.24621 9.54131 3.66675 11 3.66675C12.4587 3.66675 13.8576 4.24621 14.8891 5.27766C15.9205 6.30911 16.5 7.70806 16.5 9.16675V33.0001" stroke="#F26D36" stroke-width="2" stroke-linecap="round" stroke-linejoin="round"/>
<path d="M10.9085 32.9087C10.9085 32.9268 10.914 32.9445 10.9241 32.9595C10.9342 32.9745 10.9485 32.9862 10.9653 32.9931C10.982 33 11.0005 33.0018 11.0182 32.9982C11.036 32.9946 11.0523 32.9858 11.0651 32.973C11.0778 32.9602 11.0865 32.9438 11.09 32.9261C11.0936 32.9083 11.0917 32.8899 11.0848 32.8732C11.0778 32.8564 11.0661 32.8421 11.051 32.8321C11.0359 32.822 11.0182 32.8167 11.0001 32.8167C10.988 32.8166 10.976 32.8189 10.9649 32.8235C10.9537 32.8281 10.9435 32.8349 10.935 32.8435C10.9265 32.852 10.9197 32.8622 10.9152 32.8734C10.9106 32.8846 10.9083 32.8966 10.9085 32.9087Z" stroke="#F26D36" stroke-width="2" stroke-linecap="round" stroke-linejoin="round"/>
</svg>
