<svg width="44" height="44" viewBox="0 0 44 44" fill="none" xmlns="http://www.w3.org/2000/svg">
<path d="M5.5 11H36.6667C37.6391 11 38.5718 11.3863 39.2594 12.0739C39.947 12.7616 40.3333 13.6942 40.3333 14.6667V36.6667C40.3333 37.1529 40.1402 37.6192 39.7964 37.963C39.4526 38.3068 38.9862 38.5 38.5 38.5H18.3333C17.8471 38.5 17.3808 38.3068 17.037 37.963C16.6932 37.6192 16.5 37.1529 16.5 36.6667V33H5.5" stroke="#F26D36" stroke-width="2" stroke-linecap="round" stroke-linejoin="round"/>
<path d="M5.50004 38.5V7.33333C5.50004 6.8471 5.30689 6.38079 4.96307 6.03697C4.61925 5.69315 4.15294 5.5 3.66671 5.5H1.83337" stroke="#F26D36" stroke-width="2" stroke-linecap="round" stroke-linejoin="round"/>
<path d="M11 16.5H23.8333" stroke="#F26D36" stroke-width="2" stroke-linecap="round" stroke-linejoin="round"/>
<path d="M30.25 27.5H33.9167C34.423 27.5 34.8334 27.0896 34.8334 26.5833V17.4167C34.8334 16.9104 34.423 16.5 33.9167 16.5H30.25C29.7438 16.5 29.3334 16.9104 29.3334 17.4167V26.5833C29.3334 27.0896 29.7438 27.5 30.25 27.5Z" stroke="#F26D36" stroke-width="2" stroke-linecap="round" stroke-linejoin="round"/>
<path d="M11.9167 27.5H15.5833C16.0896 27.5 16.5 27.0896 16.5 26.5833V22.9167C16.5 22.4104 16.0896 22 15.5833 22H11.9167C11.4104 22 11 22.4104 11 22.9167V26.5833C11 27.0896 11.4104 27.5 11.9167 27.5Z" stroke="#F26D36" stroke-width="2" stroke-linecap="round" stroke-linejoin="round"/>
<path d="M23.8333 22H22" stroke="#F26D36" stroke-width="2" stroke-linecap="round" stroke-linejoin="round"/>
<path d="M23.8333 27.5H22" stroke="#F26D36" stroke-width="2" stroke-linecap="round" stroke-linejoin="round"/>
<path d="M22 33H34.8333" stroke="#F26D36" stroke-width="2" stroke-linecap="round" stroke-linejoin="round"/>
</svg>
