<svg width="44" height="44" viewBox="0 0 44 44" fill="none" xmlns="http://www.w3.org/2000/svg">
<path d="M22 42.625V9.625" stroke="#F26D36" stroke-width="2" stroke-linecap="round" stroke-linejoin="round"/>
<path d="M13.75 42.625H30.25" stroke="#F26D36" stroke-width="2" stroke-linecap="round" stroke-linejoin="round"/>
<path d="M24.2495 5.29283L37.125 1.375" stroke="#F26D36" stroke-width="2" stroke-linecap="round" stroke-linejoin="round"/>
<path d="M5.5 11.0001L19.2335 6.82007" stroke="#F26D36" stroke-width="2" stroke-linecap="round" stroke-linejoin="round"/>
<path d="M22 9.625C23.5188 9.625 24.75 8.39378 24.75 6.875C24.75 5.35622 23.5188 4.125 22 4.125C20.4812 4.125 19.25 5.35622 19.25 6.875C19.25 8.39378 20.4812 9.625 22 9.625Z" stroke="#F26D36" stroke-width="2" stroke-linecap="round" stroke-linejoin="round"/>
<path d="M16.5 28.875C16.5 30.6984 15.7757 32.447 14.4864 33.7364C13.197 35.0257 11.4484 35.75 9.625 35.75C7.80164 35.75 6.05295 35.0257 4.76364 33.7364C3.47433 32.447 2.75 30.6984 2.75 28.875H16.5Z" stroke="#F26D36" stroke-width="2" stroke-linecap="round" stroke-linejoin="round"/>
<path d="M9.55533 9.76611L2.75 23.3749" stroke="#F26D36" stroke-width="2" stroke-linecap="round" stroke-linejoin="round"/>
<path d="M9.67627 9.72949L16.4999 23.375" stroke="#F26D36" stroke-width="2" stroke-linecap="round" stroke-linejoin="round"/>
<path d="M41.25 20.625C41.25 22.4484 40.5257 24.197 39.2364 25.4864C37.947 26.7757 36.1984 27.5 34.375 27.5C32.5516 27.5 30.803 26.7757 29.5136 25.4864C28.2243 24.197 27.5 22.4484 27.5 20.625H41.25Z" stroke="#F26D36" stroke-width="2" stroke-linecap="round" stroke-linejoin="round"/>
<path d="M33.8818 2.36328L27.5 15.1251" stroke="#F26D36" stroke-width="2" stroke-linecap="round" stroke-linejoin="round"/>
<path d="M41.25 15.1251L34.738 2.1084" stroke="#F26D36" stroke-width="2" stroke-linecap="round" stroke-linejoin="round"/>
</svg>
