<svg width="44" height="44" viewBox="0 0 44 44" fill="none" xmlns="http://www.w3.org/2000/svg">
<path d="M36.0287 1.37134L29.1537 5.49634L33.2787 12.3713" stroke="#F26D36" stroke-width="2" stroke-linecap="round" stroke-linejoin="round"/>
<path d="M42.6251 15.0095C41.6979 12.4643 39.961 10.2938 37.6812 8.83092C35.4013 7.36809 32.7044 6.69384 30.0044 6.91166" stroke="#F26D36" stroke-width="2" stroke-linecap="round" stroke-linejoin="round"/>
<path d="M7.97131 42.6213L14.8463 38.4963L10.7213 31.6213" stroke="#F26D36" stroke-width="2" stroke-linecap="round" stroke-linejoin="round"/>
<path d="M1.375 28.9814C2.30221 31.5266 4.03902 33.6972 6.31888 35.16C8.59873 36.6228 11.2956 37.2971 13.9957 37.0793" stroke="#F26D36" stroke-width="2" stroke-linecap="round" stroke-linejoin="round"/>
<path d="M20.625 1.37134H4.125C2.60622 1.37134 1.375 2.60255 1.375 4.12134V20.6213C1.375 22.1401 2.60622 23.3713 4.125 23.3713H20.625C22.1438 23.3713 23.375 22.1401 23.375 20.6213V4.12134C23.375 2.60255 22.1438 1.37134 20.625 1.37134Z" stroke="#F26D36" stroke-width="2" stroke-linecap="round" stroke-linejoin="round"/>
<path d="M28.875 20.6213H39.875C40.6043 20.6213 41.3038 20.9111 41.8195 21.4268C42.3353 21.9425 42.625 22.642 42.625 23.3713V39.8713C42.625 40.6007 42.3353 41.3002 41.8195 41.8159C41.3038 42.3316 40.6043 42.6213 39.875 42.6213H23.375C22.6457 42.6213 21.9462 42.3316 21.4305 41.8159C20.9147 41.3002 20.625 40.6007 20.625 39.8713V28.8713" stroke="#F26D36" stroke-width="2" stroke-linecap="round" stroke-linejoin="round"/>
<path d="M28.875 37.1213V28.8713C28.875 28.142 29.1647 27.4425 29.6805 26.9268C30.1962 26.4111 30.8957 26.1213 31.625 26.1213C32.3543 26.1213 33.0538 26.4111 33.5695 26.9268C34.0853 27.4425 34.375 28.142 34.375 28.8713V37.1213" stroke="#F26D36" stroke-width="2" stroke-linecap="round" stroke-linejoin="round"/>
<path d="M28.875 34.3713H34.375" stroke="#F26D36" stroke-width="2" stroke-linecap="round" stroke-linejoin="round"/>
<path d="M12.375 6.87134V9.62134" stroke="#F26D36" stroke-width="2" stroke-linecap="round" stroke-linejoin="round"/>
<path d="M6.875 9.62134H17.875" stroke="#F26D36" stroke-width="2" stroke-linecap="round" stroke-linejoin="round"/>
<path d="M15.125 9.62134C15.125 9.62134 12.375 17.8713 6.875 17.8713" stroke="#F26D36" stroke-width="2" stroke-linecap="round" stroke-linejoin="round"/>
<path d="M12.3732 14.6924C12.9863 15.6071 13.8008 16.3692 14.7542 16.9202C15.7076 17.4713 16.7745 17.7967 17.8732 17.8714" stroke="#F26D36" stroke-width="2" stroke-linecap="round" stroke-linejoin="round"/>
</svg>
