<svg width="44" height="44" viewBox="0 0 44 44" fill="none" xmlns="http://www.w3.org/2000/svg">
<path d="M33.0019 9.62502C33.0924 9.62538 33.1809 9.65257 33.256 9.70315C33.3311 9.75373 33.3896 9.82544 33.424 9.90922C33.4584 9.993 33.4672 10.0851 33.4493 10.1739C33.4314 10.2627 33.3876 10.3442 33.3235 10.4081C33.2593 10.472 33.1776 10.5155 33.0888 10.533C32.9999 10.5505 32.9079 10.5414 32.8242 10.5066C32.7406 10.4719 32.6691 10.4131 32.6188 10.3378C32.5685 10.2625 32.5417 10.1739 32.5417 10.0834C32.5414 10.0229 32.5531 9.96302 32.5761 9.90715C32.5991 9.85128 32.6331 9.80054 32.6759 9.7579C32.7187 9.71525 32.7696 9.68154 32.8255 9.65873C32.8815 9.63592 32.9414 9.62446 33.0019 9.62502Z" stroke="#F26D36" stroke-width="2" stroke-linecap="round" stroke-linejoin="round"/>
<path d="M39.4166 10.0834C39.4166 8.38161 38.7406 6.7495 37.5372 5.54615C36.3339 4.34279 34.7018 3.66675 33 3.66675V3.66675C31.2982 3.66675 29.6661 4.34279 28.4627 5.54615C27.2594 6.7495 26.5833 8.38161 26.5833 10.0834C26.5833 13.0873 29.8613 16.2962 31.7313 17.8831C32.0896 18.1744 32.5373 18.3334 32.9991 18.3334C33.4608 18.3334 33.9085 18.1744 34.2668 17.8831C36.1386 16.2962 39.4166 13.0873 39.4166 10.0834Z" stroke="#F26D36" stroke-width="2" stroke-linecap="round" stroke-linejoin="round"/>
<path d="M9.45544 11.2888L32.7125 34.5459" stroke="#F26D36" stroke-width="2" stroke-linecap="round" stroke-linejoin="round"/>
<path d="M38.5 22C38.5 25.2634 37.5323 28.4535 35.7193 31.1669C33.9062 33.8803 31.3293 35.9952 28.3143 37.244C25.2993 38.4929 21.9817 38.8196 18.781 38.183C15.5803 37.5463 12.6403 35.9748 10.3327 33.6673C8.02518 31.3597 6.45371 28.4197 5.81705 25.219C5.18039 22.0183 5.50715 18.7007 6.756 15.6857C8.00484 12.6707 10.1197 10.0938 12.8331 8.28075C15.5465 6.46771 18.7366 5.5 22 5.5" stroke="#F26D36" stroke-width="2" stroke-linecap="round" stroke-linejoin="round"/>
<path d="M9.4549 32.7117L20.1666 22" stroke="#F26D36" stroke-width="2" stroke-linecap="round" stroke-linejoin="round"/>
</svg>
