<svg width="44" height="44" viewBox="0 0 44 44" fill="none" xmlns="http://www.w3.org/2000/svg">
<path d="M36.6667 20.6104C36.6667 28.6184 30.8789 36.124 22.9534 38.368C22.3337 38.544 21.6664 38.544 21.0467 38.368C13.1212 36.1259 7.33337 28.6184 7.33337 20.6104V13.2257C7.33337 11.737 8.23354 10.395 9.61221 9.8322L18.5295 6.18386C20.7552 5.2727 23.2485 5.2727 25.4724 6.18386L34.3897 9.8322C35.7665 10.395 36.6667 11.737 36.6667 13.2257V20.6104Z" stroke="#F26D36" stroke-width="2" stroke-linecap="round" stroke-linejoin="round"/>
<path d="M24.8197 21.8625C25.6191 20.966 25.9967 19.6882 25.6392 18.3333C25.3074 17.072 24.2734 16.0435 23.0121 15.7153C20.4912 15.059 18.2252 16.9437 18.2252 19.3582C18.2252 20.3207 18.5864 21.197 19.1786 21.8625C19.6039 22.3392 19.7762 22.9863 19.6021 23.6005L18.8944 26.081C18.5589 27.2525 19.4389 28.4185 20.6581 28.4185H23.3457C24.5631 28.4185 25.4431 27.2525 25.1094 26.081L24.4017 23.6005C24.2221 22.9863 24.3962 22.3392 24.8197 21.8625Z" stroke="#F26D36" stroke-width="2" stroke-linecap="round" stroke-linejoin="round"/>
</svg>
