<svg width="44" height="44" viewBox="0 0 44 44" fill="none" xmlns="http://www.w3.org/2000/svg">
<path d="M26.07 4.28091C32.0796 5.18474 36.8316 9.93491 37.7336 15.9446C37.8986 17.0427 37.015 18.0272 35.904 18.0272H25.8188C24.8068 18.0272 23.9855 17.2059 23.9855 16.1939V6.10874C23.9855 4.99774 24.9718 4.11591 26.07 4.28091Z" stroke="#F26D36" stroke-width="2" stroke-linecap="round" stroke-linejoin="round"/>
<path d="M35.1706 32.2465C36.4888 30.4663 37.3908 28.3598 37.7336 26.07C37.8986 24.9718 37.015 23.9873 35.904 23.9873H28.4111C26.7776 23.9873 25.96 25.9618 27.115 27.1168L32.4151 32.417C33.1961 33.1961 34.5125 33.1338 35.1706 32.2465Z" stroke="#F26D36" stroke-width="2" stroke-linecap="round" stroke-linejoin="round"/>
<path d="M15.9665 12.2212C8.38934 13.3469 2.80684 20.5867 4.39634 28.7615C5.45418 34.201 9.85051 38.5772 15.2937 39.613C19.4205 40.3977 23.3035 39.3582 26.279 37.16C27.17 36.5019 27.2378 35.1819 26.455 34.399L18.5643 26.5084C18.2197 26.1637 18.0272 25.698 18.0272 25.2122V14.0472C18.0272 12.9454 17.0573 12.0599 15.9665 12.2212Z" stroke="#F26D36" stroke-width="2" stroke-linecap="round" stroke-linejoin="round"/>
</svg>
