<svg width="44" height="44" viewBox="0 0 44 44" fill="none" xmlns="http://www.w3.org/2000/svg">
<path d="M27.4963 42.6306H16.4963L17.8713 34.3806H26.1213L27.4963 42.6306Z" stroke="#F26D36" stroke-width="2" stroke-linecap="round" stroke-linejoin="round"/>
<path d="M12.3713 42.6306H31.6213" stroke="#F26D36" stroke-width="2" stroke-linecap="round" stroke-linejoin="round"/>
<path d="M37.1213 1.38062H6.87134C3.83377 1.38062 1.37134 3.84305 1.37134 6.88062V28.8806C1.37134 31.9182 3.83377 34.3806 6.87134 34.3806H37.1213C40.1589 34.3806 42.6213 31.9182 42.6213 28.8806V6.88062C42.6213 3.84305 40.1589 1.38062 37.1213 1.38062Z" stroke="#F26D36" stroke-width="2" stroke-linecap="round" stroke-linejoin="round"/>
<path d="M1.37134 20.6306L8.64967 13.3541C8.77736 13.2263 8.92898 13.125 9.09586 13.0558C9.26274 12.9867 9.44161 12.9511 9.62225 12.9511C9.8029 12.9511 9.98177 12.9867 10.1486 13.0558C10.3155 13.125 10.4671 13.2263 10.5948 13.3541L14.1497 16.9089C14.2774 17.0367 14.429 17.1381 14.5959 17.2072C14.7627 17.2764 14.9416 17.312 15.1223 17.312C15.3029 17.312 15.4818 17.2764 15.6486 17.2072C15.8155 17.1381 15.9671 17.0367 16.0948 16.9089L23.3713 9.63062" stroke="#F26D36" stroke-width="2" stroke-linecap="round" stroke-linejoin="round"/>
<path d="M1.37134 28.8806H42.6213" stroke="#F26D36" stroke-width="2" stroke-linecap="round" stroke-linejoin="round"/>
<path d="M26.1213 17.8806V22.0056" stroke="#F26D36" stroke-width="2" stroke-linecap="round" stroke-linejoin="round"/>
<path d="M37.1213 17.8806V22.0056" stroke="#F26D36" stroke-width="2" stroke-linecap="round" stroke-linejoin="round"/>
<path d="M31.6213 13.7556V22.0056" stroke="#F26D36" stroke-width="2" stroke-linecap="round" stroke-linejoin="round"/>
</svg>
