<svg width="44" height="44" viewBox="0 0 44 44" fill="none" xmlns="http://www.w3.org/2000/svg">
<path d="M27.2251 36.4301H30.2116C34.3329 36.4301 37.6751 33.0879 37.6751 28.9666" stroke="#F26D36" stroke-width="2" stroke-linecap="round" stroke-linejoin="round"/>
<path d="M29.4636 38.6704L27.2251 36.4319L29.4636 34.1934" stroke="#F26D36" stroke-width="2" stroke-linecap="round" stroke-linejoin="round"/>
<path d="M16.775 7.56982H13.7885C9.66712 7.56982 6.32495 10.912 6.32495 15.0333" stroke="#F26D36" stroke-width="2" stroke-linecap="round" stroke-linejoin="round"/>
<path d="M14.5366 5.32935L16.7751 7.56968L14.5366 9.80818" stroke="#F26D36" stroke-width="2" stroke-linecap="round" stroke-linejoin="round"/>
<path d="M31.6067 22.0348C36.4063 22.0348 40.3333 18.1078 40.3333 13.3099C40.3333 8.51209 36.4063 4.58325 31.6067 4.58325C26.807 4.58325 22.8818 8.51025 22.8818 13.3099C22.8818 15.2679 23.5437 17.0738 24.6418 18.5331C26.2387 20.6524 28.7668 22.0348 31.6067 22.0348Z" stroke="#F26D36" stroke-width="2" stroke-linecap="round" stroke-linejoin="round"/>
<path d="M31.6067 9.38297V8.07397" stroke="#F26D36" stroke-width="2" stroke-linecap="round" stroke-linejoin="round"/>
<path d="M31.6067 17.2351V18.5441" stroke="#F26D36" stroke-width="2" stroke-linecap="round" stroke-linejoin="round"/>
<path d="M29.3351 16.3001C29.6743 16.8556 30.2536 17.2388 30.9522 17.2388H31.6067H32.3858C33.4015 17.2388 34.2228 16.4156 34.2228 15.4018C34.2228 14.5584 33.649 13.8233 32.8313 13.6179L30.3783 13.0019C29.5625 12.7966 28.9868 12.0614 28.9868 11.2181C28.9868 10.2024 29.81 9.3811 30.8238 9.3811H31.603H32.2575C32.956 9.3811 33.5335 9.76244 33.8727 10.3161" stroke="#F26D36" stroke-width="2" stroke-linecap="round" stroke-linejoin="round"/>
<path d="M18.5332 36.8482C15.1324 40.249 9.61772 40.249 6.21689 36.8482C2.81605 33.4473 2.81605 27.9327 6.21689 24.5318C9.61772 21.131 15.1324 21.131 18.5332 24.5318C21.9341 27.9345 21.9341 33.4473 18.5332 36.8482Z" stroke="#F26D36" stroke-width="2" stroke-linecap="round" stroke-linejoin="round"/>
<path d="M7.59741 30.6899H12.8224" stroke="#F26D36" stroke-width="2" stroke-linecap="round" stroke-linejoin="round"/>
<path d="M14.5311 34.6608C12.9434 35.3483 11.0423 35.066 9.74426 33.768C8.04293 32.0667 8.04293 29.3112 9.74426 27.6099C11.0423 26.3119 12.9453 26.0295 14.5311 26.717" stroke="#F26D36" stroke-width="2" stroke-linecap="round" stroke-linejoin="round"/>
</svg>
