<svg width="44" height="44" viewBox="0 0 44 44" fill="none" xmlns="http://www.w3.org/2000/svg">
<path d="M29.986 29.9841L34.8462 42.625L37.763 37.763L42.625 34.8461L29.986 29.9841Z" stroke="#F26D36" stroke-width="2" stroke-linecap="round" stroke-linejoin="round"/>
<path d="M42.625 42.6249L37.763 37.7629" stroke="#F26D36" stroke-width="2" stroke-linecap="round" stroke-linejoin="round"/>
<path d="M8.25 22V8.25" stroke="#F26D36" stroke-width="2" stroke-linecap="round" stroke-linejoin="round"/>
<path d="M8.25 8.25H11C11.7293 8.25 12.4288 8.53973 12.9445 9.05546C13.4603 9.57118 13.75 10.2707 13.75 11V12.375C13.75 13.1043 13.4603 13.8038 12.9445 14.3195C12.4288 14.8353 11.7293 15.125 11 15.125H8.25" stroke="#F26D36" stroke-width="2" stroke-linecap="round" stroke-linejoin="round"/>
<path d="M8.25 15.125H11C11.7293 15.125 12.4288 15.4147 12.9445 15.9305C13.4603 16.4462 13.75 17.1457 13.75 17.875V19.25C13.75 19.9793 13.4603 20.6788 12.9445 21.1945C12.4288 21.7103 11.7293 22 11 22H8.25" stroke="#F26D36" stroke-width="2" stroke-linecap="round" stroke-linejoin="round"/>
<path d="M19.25 8.25V19.25C19.25 19.9793 19.5397 20.6788 20.0555 21.1945C20.5712 21.7103 21.2707 22 22 22C22.7293 22 23.4288 21.7103 23.9445 21.1945C24.4603 20.6788 24.75 19.9793 24.75 19.25V8.25" stroke="#F26D36" stroke-width="2" stroke-linecap="round" stroke-linejoin="round"/>
<path d="M30.25 8.25V12.375C30.25 13.1043 30.5397 13.8038 31.0555 14.3195C31.5712 14.8353 32.2707 15.125 33 15.125C33.7293 15.125 34.4288 14.8353 34.9445 14.3195C35.4603 13.8038 35.75 13.1043 35.75 12.375V8.25" stroke="#F26D36" stroke-width="2" stroke-linecap="round" stroke-linejoin="round"/>
<path d="M33 15.125V22" stroke="#F26D36" stroke-width="2" stroke-linecap="round" stroke-linejoin="round"/>
<path d="M23.375 28.875H6.875C5.41631 28.875 4.01736 28.2955 2.98591 27.2641C1.95446 26.2326 1.375 24.8337 1.375 23.375V6.875C1.375 5.41631 1.95446 4.01736 2.98591 2.98591C4.01736 1.95446 5.41631 1.375 6.875 1.375H37.125C38.5837 1.375 39.9826 1.95446 41.0141 2.98591C42.0455 4.01736 42.625 5.41631 42.625 6.875V23.375C42.6252 24.3553 42.3634 25.3179 41.8667 26.163C41.37 27.0082 40.6564 27.7052 39.7998 28.182" stroke="#F26D36" stroke-width="2" stroke-linecap="round" stroke-linejoin="round"/>
</svg>
