<svg width="171" height="58" viewBox="0 0 171 58" fill="none" xmlns="http://www.w3.org/2000/svg">
<path d="M21.7167 10.1959C21.7167 8.46778 21.7167 6.79727 21.7743 5.06915L21.8319 2.53458C21.8319 1.67051 21.8895 0.864059 21.9471 0H20.219H3.28343C3.28343 3.34103 3.28343 6.04842 3.28343 7.77654C3.34103 11.8664 3.39864 14.3434 2.13135 15.0346H0V22.8688H6.50925V20.3918H17.3964V22.8688H23.9057V15.0346H21.7743C21.7167 13.4217 21.7167 11.8088 21.7167 10.1959ZM9.50466 15.1498C9.73507 13.4793 9.73507 11.348 9.79268 8.46778C9.79268 8.00695 9.79268 7.14289 9.79268 6.39404C10.6567 6.39404 11.4632 6.39404 12.3273 6.39404C13.0185 6.39404 13.6521 6.39404 14.3434 6.39404C14.3434 7.66133 14.3434 8.92862 14.3434 10.1959C14.3434 11.8088 14.3434 13.4793 14.3434 15.1498C13.5369 15.1498 12.7305 15.1498 11.924 15.1498C11.1176 15.1498 10.3111 15.1498 9.50466 15.1498Z" fill="black"/>
<path d="M40.5271 6.56685V0H31.3105H25.0892C25.0892 0.864059 25.1468 1.72812 25.1468 2.53458L25.2044 5.12675C25.262 6.79727 25.262 8.52539 25.262 10.1959C25.262 11.924 25.262 13.5945 25.2044 15.3227L25.1468 17.8572C25.1468 18.7213 25.0892 19.5854 25.0892 20.3918H32.8082C32.7506 19.5854 32.7506 18.7213 32.693 17.8572L32.6354 15.3227C32.6354 13.5945 32.6354 11.924 32.6354 10.1959C32.6354 8.98622 32.6354 7.71893 32.6354 6.45165H33.6146C34.3635 6.39404 35.1699 6.39404 35.9188 6.39404C36.6676 6.39404 37.4741 6.39404 38.2229 6.45165H39.375L40.5271 6.56685Z" fill="black"/>
<path d="M53.0308 0.0576032C52.3395 2.8802 51.5907 5.70279 50.8994 8.52539H50.7266C50.093 5.70279 49.4593 2.8802 48.8257 0.0576032H41.7404L47.2128 15.0346C46.7519 15.2075 46.2911 15.3227 45.8303 15.3227C45.139 15.3227 44.3902 15.1498 43.7565 14.8618V19.8734C45.0814 20.507 46.5791 20.8526 48.0768 20.8526C48.8257 20.795 51.7635 20.6798 54.01 18.4333C54.8741 17.5692 55.5077 16.5323 55.911 15.3803C56.487 13.1337 56.8902 11.4056 57.2359 10.2535C57.4087 9.67747 57.6391 8.87101 57.6967 8.52539C57.9847 7.43091 58.3303 6.27883 58.6184 5.12675L59.3672 2.59218C59.6552 1.72812 59.8856 0.921662 60.1737 0.0576032H53.0308Z" fill="black"/>
<path d="M81.0173 2.59218C81.0749 1.72812 81.0749 0.921662 81.1325 0.0576032H73.356C73.4136 0.921662 73.4136 1.72812 73.4712 2.59218L73.5288 5.12675C73.5288 6.27883 73.5288 7.43091 73.5288 8.58299C72.7799 8.6406 72.0311 8.6406 71.2246 8.6406C70.4182 8.6406 69.6693 8.6406 68.8629 8.58299C68.8629 7.43091 68.8629 6.27883 68.8629 5.12675L68.9205 2.59218C68.9781 1.72812 68.9781 0.921662 69.0357 0.0576032H61.3167C61.3167 0.921662 61.3743 1.72812 61.3743 2.59218L61.4319 5.12675C61.4895 6.85487 61.4896 8.52539 61.4896 10.2535C61.4896 11.924 61.4895 13.6521 61.4319 15.3227L61.3743 17.9148C61.3743 18.7213 61.3167 19.5854 61.3167 20.4494H69.0357C68.9781 19.5854 68.9781 18.7213 68.9205 17.9148L68.8629 15.3227C68.8629 14.2282 68.8629 13.0761 68.8629 11.924C69.6693 11.924 70.4182 11.924 71.2246 11.8664C72.0311 11.924 72.7799 11.924 73.5288 11.924C73.5288 13.0761 73.5288 14.2282 73.5288 15.3227L73.4712 17.9148C73.4136 18.7213 73.4136 19.5854 73.356 20.4494H81.1325C81.0749 19.5854 81.0749 18.7213 81.0173 17.9148L80.9597 15.3227C80.9597 13.6521 80.9597 11.924 80.9021 10.2535C80.9597 8.52539 80.9597 6.85487 80.9597 5.12675L81.0173 2.59218Z" fill="black"/>
<path d="M99.3502 7.66133L100.157 5.06915L101.078 2.53458L101.539 1.26729L102 0H93.8778L93.6474 1.26729L93.417 2.53458L92.8986 5.06915L92.3225 7.66133H91.9769L91.4009 5.06915L90.8824 2.53458L90.652 1.26729L90.4216 0H82.2994L82.7603 1.26729L83.2211 2.53458L84.1428 5.06915L84.9492 7.66133L85.4101 8.92862L85.7557 10.1959L85.4101 11.4632L84.9492 12.7305L84.1428 15.2651L83.2211 17.8572L82.7603 19.1245L82.2994 20.3918H90.4216L90.652 19.1245L90.8824 17.8572L91.4009 15.2651L91.9769 12.7305H92.2649H92.3225L92.8986 15.2651L93.417 17.8572L93.6474 19.1245L93.8778 20.3918H102L101.539 19.1245L101.078 17.8572L100.157 15.2651L99.3502 12.7305L98.8894 11.4632L98.5438 10.1959L98.8894 8.92862L99.3502 7.66133Z" fill="black"/>
<path d="M0.255682 42.63V40.0874H0.724432C0.885417 39.9406 1.03693 39.7335 1.17898 39.466C1.32339 39.1961 1.44531 38.8362 1.54474 38.3864C1.64654 37.9342 1.71402 37.3601 1.74716 36.6641L1.90341 33.5959H6.22159V40.0874H7.05966V42.6158H6.22159V40.8687H1.09375V42.63H0.255682ZM1.77557 40.0874H5.38352V34.3772H2.69886L2.58523 36.6641C2.55682 37.1944 2.5071 37.675 2.43608 38.1059C2.36506 38.5344 2.27391 38.9143 2.16264 39.2458C2.05137 39.5749 1.92235 39.8554 1.77557 40.0874ZM9.88192 40.9965C9.53628 40.9965 9.2226 40.9314 8.94087 40.8012C8.65915 40.6686 8.43543 40.478 8.26971 40.2294C8.10399 39.9785 8.02113 39.6755 8.02113 39.3204C8.02113 39.0079 8.08268 38.7545 8.20579 38.5604C8.32889 38.3639 8.49343 38.21 8.6994 38.0988C8.90536 37.9875 9.13263 37.9046 9.38121 37.8502C9.63216 37.7934 9.88429 37.7484 10.1376 37.7152C10.469 37.6726 10.7377 37.6407 10.9437 37.6194C11.152 37.5957 11.3036 37.5566 11.3983 37.5022C11.4953 37.4477 11.5439 37.353 11.5439 37.2181V37.1897C11.5439 36.8393 11.448 36.567 11.2562 36.3729C11.0668 36.1788 10.7792 36.0817 10.3933 36.0817C9.99319 36.0817 9.67951 36.1693 9.45224 36.3445C9.22496 36.5197 9.06516 36.7067 8.97283 36.9056L8.17738 36.6215C8.31942 36.2901 8.50882 36.032 8.74556 35.8473C8.98467 35.6603 9.24509 35.5301 9.52681 35.4567C9.8109 35.381 10.0903 35.3431 10.3649 35.3431C10.5401 35.3431 10.7413 35.3644 10.9686 35.407C11.1982 35.4473 11.4196 35.5313 11.6326 35.6591C11.8481 35.787 12.0268 35.9799 12.1689 36.238C12.3109 36.496 12.3819 36.8417 12.3819 37.2749V40.8687H11.5439V40.13H11.5012C11.4444 40.2484 11.3497 40.375 11.2172 40.51C11.0846 40.6449 10.9082 40.7598 10.688 40.8544C10.4679 40.9491 10.1992 40.9965 9.88192 40.9965ZM10.0098 40.2437C10.3412 40.2437 10.6206 40.1785 10.8478 40.0483C11.0775 39.9181 11.2503 39.75 11.3663 39.5441C11.4847 39.3381 11.5439 39.1215 11.5439 38.8942V38.1272C11.5083 38.1698 11.4302 38.2089 11.3095 38.2444C11.1911 38.2775 11.0538 38.3071 10.8975 38.3331C10.7437 38.3568 10.5933 38.3781 10.4466 38.3971C10.3021 38.4136 10.185 38.4278 10.095 38.4397C9.87719 38.4681 9.67359 38.5142 9.4842 38.5782C9.29717 38.6397 9.14566 38.7332 9.02965 38.8587C8.91602 38.9818 8.8592 39.1499 8.8592 39.363C8.8592 39.6542 8.96692 39.8743 9.18235 40.0235C9.40015 40.1703 9.67596 40.2437 10.0098 40.2437ZM17.2781 35.4141V36.1954H14.7496V40.8687H13.9116V35.4141H17.2781ZM20.5051 40.9823C19.9796 40.9823 19.5262 40.8663 19.1451 40.6343C18.7663 40.3999 18.4739 40.0732 18.2679 39.6542C18.0643 39.2328 17.9625 38.7427 17.9625 38.184C17.9625 37.6253 18.0643 37.1329 18.2679 36.7067C18.4739 36.2782 18.7604 35.9444 19.1273 35.7053C19.4966 35.4638 19.9275 35.3431 20.4199 35.3431C20.704 35.3431 20.9846 35.3904 21.2615 35.4851C21.5385 35.5798 21.7907 35.7337 22.0179 35.9468C22.2452 36.1575 22.4263 36.4368 22.5613 36.7848C22.6962 37.1329 22.7637 37.5614 22.7637 38.0704V38.4255H18.5591V37.701H21.9114C21.9114 37.3933 21.8498 37.1187 21.7267 36.8772C21.606 36.6357 21.4332 36.4451 21.2083 36.3054C20.9857 36.1658 20.723 36.0959 20.4199 36.0959C20.0861 36.0959 19.7973 36.1788 19.5534 36.3445C19.312 36.5079 19.1261 36.7209 18.9959 36.9837C18.8657 37.2465 18.8006 37.5282 18.8006 37.8289V38.3118C18.8006 38.7238 18.8716 39.073 19.0137 39.3594C19.1581 39.6435 19.3581 39.8601 19.6138 40.0093C19.8695 40.1561 20.1666 40.2294 20.5051 40.2294C20.7253 40.2294 20.9242 40.1987 21.1017 40.1371C21.2817 40.0732 21.4367 39.9785 21.5669 39.853C21.6971 39.7252 21.7978 39.5666 21.8688 39.3772L22.6784 39.6044C22.5932 39.8791 22.45 40.1205 22.2488 40.3289C22.0475 40.5348 21.7989 40.6958 21.503 40.8118C21.2071 40.9255 20.8745 40.9823 20.5051 40.9823ZM26.2544 40.9823C25.7431 40.9823 25.3027 40.8616 24.9334 40.6201C24.5641 40.3786 24.28 40.046 24.0811 39.6222C23.8823 39.1984 23.7828 38.7143 23.7828 38.1698C23.7828 37.6158 23.8846 37.1269 24.0882 36.7032C24.2942 36.277 24.5807 35.9444 24.9476 35.7053C25.3169 35.4638 25.7478 35.3431 26.2402 35.3431C26.6238 35.3431 26.9694 35.4141 27.2772 35.5562C27.5849 35.6982 27.8371 35.8971 28.0336 36.1527C28.2301 36.4084 28.352 36.7067 28.3993 37.0476H27.5613C27.4973 36.799 27.3553 36.5789 27.1351 36.3871C26.9173 36.193 26.6238 36.0959 26.2544 36.0959C25.9277 36.0959 25.6413 36.1812 25.3951 36.3516C25.1512 36.5197 24.9606 36.7576 24.8233 37.0654C24.6884 37.3708 24.6209 37.7294 24.6209 38.1414C24.6209 38.5628 24.6872 38.9297 24.8198 39.2422C24.9547 39.5547 25.1441 39.7974 25.388 39.9702C25.6342 40.143 25.923 40.2294 26.2544 40.2294C26.4722 40.2294 26.6699 40.1916 26.8475 40.1158C27.025 40.0401 27.1754 39.9312 27.2985 39.7891C27.4216 39.6471 27.5092 39.4766 27.5613 39.2777H28.3993C28.352 39.5997 28.2348 39.8897 28.0478 40.1478C27.8631 40.4035 27.6181 40.6071 27.3127 40.7586C27.0096 40.9077 26.6569 40.9823 26.2544 40.9823ZM29.1948 36.1954V35.4141H33.6266V36.1954H31.8368V40.8687H30.9988V36.1954H29.1948ZM36.171 40.9965C35.8253 40.9965 35.5117 40.9314 35.2299 40.8012C34.9482 40.6686 34.7245 40.478 34.5588 40.2294C34.3931 39.9785 34.3102 39.6755 34.3102 39.3204C34.3102 39.0079 34.3717 38.7545 34.4949 38.5604C34.618 38.3639 34.7825 38.21 34.9885 38.0988C35.1944 37.9875 35.4217 37.9046 35.6703 37.8502C35.9212 37.7934 36.1734 37.7484 36.4267 37.7152C36.7581 37.6726 37.0268 37.6407 37.2328 37.6194C37.4411 37.5957 37.5926 37.5566 37.6873 37.5022C37.7844 37.4477 37.8329 37.353 37.8329 37.2181V37.1897C37.8329 36.8393 37.737 36.567 37.5453 36.3729C37.3559 36.1788 37.0682 36.0817 36.6824 36.0817C36.2823 36.0817 35.9686 36.1693 35.7413 36.3445C35.514 36.5197 35.3542 36.7067 35.2619 36.9056L34.4664 36.6215C34.6085 36.2901 34.7979 36.032 35.0346 35.8473C35.2737 35.6603 35.5342 35.5301 35.8159 35.4567C36.1 35.381 36.3793 35.3431 36.6539 35.3431C36.8291 35.3431 37.0304 35.3644 37.2576 35.407C37.4873 35.4473 37.7086 35.5313 37.9217 35.6591C38.1371 35.787 38.3159 35.9799 38.4579 36.238C38.6 36.496 38.671 36.8417 38.671 37.2749V40.8687H37.8329V40.13H37.7903C37.7335 40.2484 37.6388 40.375 37.5062 40.51C37.3736 40.6449 37.1973 40.7598 36.9771 40.8544C36.7569 40.9491 36.4882 40.9965 36.171 40.9965ZM36.2988 40.2437C36.6303 40.2437 36.9096 40.1785 37.1369 40.0483C37.3665 39.9181 37.5394 39.75 37.6554 39.5441C37.7737 39.3381 37.8329 39.1215 37.8329 38.8942V38.1272C37.7974 38.1698 37.7193 38.2089 37.5985 38.2444C37.4802 38.2775 37.3429 38.3071 37.1866 38.3331C37.0327 38.3568 36.8824 38.3781 36.7356 38.3971C36.5912 38.4136 36.474 38.4278 36.3841 38.4397C36.1663 38.4681 35.9627 38.5142 35.7733 38.5782C35.5862 38.6397 35.4347 38.7332 35.3187 38.8587C35.2051 38.9818 35.1483 39.1499 35.1483 39.363C35.1483 39.6542 35.256 39.8743 35.4714 40.0235C35.6892 40.1703 35.965 40.2437 36.2988 40.2437ZM43.8512 37.7579V38.5391H40.8398V37.7579H43.8512ZM41.0387 35.4141V40.8687H40.2006V35.4141H41.0387ZM44.4904 35.4141V40.8687H43.6523V35.4141H44.4904ZM48.2369 40.9823C47.7255 40.9823 47.2852 40.8616 46.9158 40.6201C46.5465 40.3786 46.2624 40.046 46.0636 39.6222C45.8647 39.1984 45.7653 38.7143 45.7653 38.1698C45.7653 37.6158 45.8671 37.1269 46.0707 36.7032C46.2766 36.277 46.5631 35.9444 46.93 35.7053C47.2994 35.4638 47.7302 35.3431 48.2227 35.3431C48.6062 35.3431 48.9518 35.4141 49.2596 35.5562C49.5674 35.6982 49.8195 35.8971 50.016 36.1527C50.2125 36.4084 50.3344 36.7067 50.3817 37.0476H49.5437C49.4798 36.799 49.3377 36.5789 49.1175 36.3871C48.8997 36.193 48.6062 36.0959 48.2369 36.0959C47.9102 36.0959 47.6237 36.1812 47.3775 36.3516C47.1336 36.5197 46.9431 36.7576 46.8058 37.0654C46.6708 37.3708 46.6033 37.7294 46.6033 38.1414C46.6033 38.5628 46.6696 38.9297 46.8022 39.2422C46.9371 39.5547 47.1265 39.7974 47.3704 39.9702C47.6166 40.143 47.9054 40.2294 48.2369 40.2294C48.4547 40.2294 48.6523 40.1916 48.8299 40.1158C49.0075 40.0401 49.1578 39.9312 49.2809 39.7891C49.404 39.6471 49.4916 39.4766 49.5437 39.2777H50.3817C50.3344 39.5997 50.2172 39.8897 50.0302 40.1478C49.8455 40.4035 49.6005 40.6071 49.2951 40.7586C48.9921 40.9077 48.6393 40.9823 48.2369 40.9823ZM51.6069 40.8687V35.4141H52.445V37.7863H52.9989L54.9592 35.4141H56.0387L53.837 38.0419L56.0671 40.8687H54.9876L53.1978 38.5675H52.445V40.8687H51.6069ZM57.8161 39.6329L60.4439 35.4141H61.4098V40.8687H60.5717V36.6499L57.9581 40.8687H56.978V35.4141H57.8161V39.6329ZM63.7828 39.6329L66.4107 35.4141H67.3766V40.8687H66.5385V36.6499L63.9249 40.8687H62.9448V35.4141H63.7828V39.6329ZM65.8567 33.5959H66.638C66.638 33.9794 66.5054 34.2931 66.2402 34.537C65.9751 34.7808 65.6152 34.9027 65.1607 34.9027C64.7132 34.9027 64.3569 34.7808 64.0918 34.537C63.829 34.2931 63.6976 33.9794 63.6976 33.5959H64.4789C64.4789 33.7806 64.5298 33.9428 64.6316 34.0824C64.7357 34.2221 64.9121 34.2919 65.1607 34.2919C65.4093 34.2919 65.5868 34.2221 65.6934 34.0824C65.8023 33.9428 65.8567 33.7806 65.8567 33.5959ZM76.2269 33.5959V34.3772H72.7184V40.8687H71.8377V33.5959H76.2269ZM78.9009 40.9823C78.4085 40.9823 77.9764 40.8651 77.6048 40.6307C77.2354 40.3964 76.9466 40.0685 76.7383 39.6471C76.5323 39.2257 76.4293 38.7332 76.4293 38.1698C76.4293 37.6016 76.5323 37.1056 76.7383 36.6819C76.9466 36.2581 77.2354 35.929 77.6048 35.6946C77.9764 35.4603 78.4085 35.3431 78.9009 35.3431C79.3933 35.3431 79.8242 35.4603 80.1935 35.6946C80.5652 35.929 80.854 36.2581 81.06 36.6819C81.2683 37.1056 81.3725 37.6016 81.3725 38.1698C81.3725 38.7332 81.2683 39.2257 81.06 39.6471C80.854 40.0685 80.5652 40.3964 80.1935 40.6307C79.8242 40.8651 79.3933 40.9823 78.9009 40.9823ZM78.9009 40.2294C79.275 40.2294 79.5827 40.1336 79.8242 39.9418C80.0657 39.75 80.2444 39.4979 80.3604 39.1854C80.4764 38.8729 80.5344 38.5344 80.5344 38.1698C80.5344 37.8052 80.4764 37.4655 80.3604 37.1506C80.2444 36.8357 80.0657 36.5812 79.8242 36.3871C79.5827 36.193 79.275 36.0959 78.9009 36.0959C78.5269 36.0959 78.2191 36.193 77.9776 36.3871C77.7362 36.5812 77.5574 36.8357 77.4414 37.1506C77.3254 37.4655 77.2674 37.8052 77.2674 38.1698C77.2674 38.5344 77.3254 38.8729 77.4414 39.1854C77.5574 39.4979 77.7362 39.75 77.9776 39.9418C78.2191 40.1336 78.5269 40.2294 78.9009 40.2294ZM84.8677 40.9823C84.3564 40.9823 83.916 40.8616 83.5467 40.6201C83.1774 40.3786 82.8933 40.046 82.6944 39.6222C82.4956 39.1984 82.3961 38.7143 82.3961 38.1698C82.3961 37.6158 82.4979 37.1269 82.7015 36.7032C82.9075 36.277 83.194 35.9444 83.5609 35.7053C83.9302 35.4638 84.3611 35.3431 84.8535 35.3431C85.237 35.3431 85.5827 35.4141 85.8904 35.5562C86.1982 35.6982 86.4503 35.8971 86.6468 36.1527C86.8433 36.4084 86.9653 36.7067 87.0126 37.0476H86.1745C86.1106 36.799 85.9686 36.5789 85.7484 36.3871C85.5306 36.193 85.237 36.0959 84.8677 36.0959C84.541 36.0959 84.2546 36.1812 84.0083 36.3516C83.7645 36.5197 83.5739 36.7576 83.4366 37.0654C83.3017 37.3708 83.2342 37.7294 83.2342 38.1414C83.2342 38.5628 83.3005 38.9297 83.4331 39.2422C83.568 39.5547 83.7574 39.7974 84.0012 39.9702C84.2475 40.143 84.5363 40.2294 84.8677 40.2294C85.0855 40.2294 85.2832 40.1916 85.4608 40.1158C85.6383 40.0401 85.7886 39.9312 85.9118 39.7891C86.0349 39.6471 86.1225 39.4766 86.1745 39.2777H87.0126C86.9653 39.5997 86.8481 39.8897 86.661 40.1478C86.4764 40.4035 86.2314 40.6071 85.926 40.7586C85.6229 40.9077 85.2702 40.9823 84.8677 40.9823ZM88.7775 42.9141C88.6355 42.9141 88.5088 42.9023 88.3975 42.8786C88.2863 42.8573 88.2093 42.836 88.1667 42.8147L88.3798 42.076C88.5834 42.1281 88.7633 42.1471 88.9196 42.1329C89.0758 42.1187 89.2143 42.0488 89.335 41.9233C89.4582 41.8002 89.5706 41.6002 89.6724 41.3232L89.8287 40.8971L87.8116 35.4141H88.7207L90.2264 39.7607H90.2832L91.7889 35.4141H92.698L90.3826 41.6641C90.2785 41.9458 90.1494 42.179 89.9956 42.3637C89.8417 42.5507 89.6629 42.6892 89.4593 42.7792C89.2581 42.8691 89.0308 42.9141 88.7775 42.9141ZM92.7628 42.4312V40.0874H93.2173C93.3286 39.9714 93.4245 39.8459 93.505 39.711C93.5855 39.576 93.6553 39.4162 93.7145 39.2316C93.776 39.0446 93.8281 38.8173 93.8707 38.5498C93.9134 38.2799 93.9512 37.9544 93.9844 37.5732L94.169 35.4141H97.6349V40.0874H98.473V42.4312H97.6349V40.8687H93.6009V42.4312H92.7628ZM94.169 40.0874H96.7969V36.1954H94.9503L94.8082 37.5732C94.7491 38.1437 94.6757 38.6421 94.5881 39.0682C94.5005 39.4944 94.3608 39.8341 94.169 40.0874ZM101.191 40.9965C100.845 40.9965 100.531 40.9314 100.249 40.8012C99.9677 40.6686 99.744 40.478 99.5783 40.2294C99.4126 39.9785 99.3297 39.6755 99.3297 39.3204C99.3297 39.0079 99.3913 38.7545 99.5144 38.5604C99.6375 38.3639 99.802 38.21 100.008 38.0988C100.214 37.9875 100.441 37.9046 100.69 37.8502C100.941 37.7934 101.193 37.7484 101.446 37.7152C101.778 37.6726 102.046 37.6407 102.252 37.6194C102.461 37.5957 102.612 37.5566 102.707 37.5022C102.804 37.4477 102.852 37.353 102.852 37.2181V37.1897C102.852 36.8393 102.757 36.567 102.565 36.3729C102.375 36.1788 102.088 36.0817 101.702 36.0817C101.302 36.0817 100.988 36.1693 100.761 36.3445C100.534 36.5197 100.374 36.7067 100.281 36.9056L99.486 36.6215C99.628 36.2901 99.8174 36.032 100.054 35.8473C100.293 35.6603 100.554 35.5301 100.835 35.4567C101.119 35.381 101.399 35.3431 101.673 35.3431C101.849 35.3431 102.05 35.3644 102.277 35.407C102.507 35.4473 102.728 35.5313 102.941 35.6591C103.157 35.787 103.335 35.9799 103.477 36.238C103.619 36.496 103.691 36.8417 103.691 37.2749V40.8687H102.852V40.13H102.81C102.753 40.2484 102.658 40.375 102.526 40.51C102.393 40.6449 102.217 40.7598 101.997 40.8544C101.776 40.9491 101.508 40.9965 101.191 40.9965ZM101.318 40.2437C101.65 40.2437 101.929 40.1785 102.156 40.0483C102.386 39.9181 102.559 39.75 102.675 39.5441C102.793 39.3381 102.852 39.1215 102.852 38.8942V38.1272C102.817 38.1698 102.739 38.2089 102.618 38.2444C102.5 38.2775 102.362 38.3071 102.206 38.3331C102.052 38.3568 101.902 38.3781 101.755 38.3971C101.611 38.4136 101.494 38.4278 101.404 38.4397C101.186 38.4681 100.982 38.5142 100.793 38.5782C100.606 38.6397 100.454 38.7332 100.338 38.8587C100.225 38.9818 100.168 39.1499 100.168 39.363C100.168 39.6542 100.276 39.8743 100.491 40.0235C100.709 40.1703 100.985 40.2437 101.318 40.2437ZM105.22 42.9141V35.4141H106.03V36.2806H106.129C106.191 36.1859 106.276 36.0651 106.385 35.9184C106.496 35.7692 106.655 35.6366 106.861 35.5206C107.069 35.4023 107.351 35.3431 107.706 35.3431C108.165 35.3431 108.57 35.4579 108.92 35.6875C109.271 35.9172 109.544 36.2427 109.741 36.6641C109.937 37.0855 110.036 37.5827 110.036 38.1556C110.036 38.7332 109.937 39.2339 109.741 39.6577C109.544 40.0791 109.272 40.4058 108.924 40.6378C108.576 40.8675 108.175 40.9823 107.72 40.9823C107.37 40.9823 107.089 40.9243 106.879 40.8083C106.668 40.6899 106.506 40.5562 106.392 40.407C106.278 40.2555 106.191 40.13 106.129 40.0306H106.058V42.9141H105.22ZM106.044 38.1414C106.044 38.5533 106.104 38.9167 106.225 39.2316C106.346 39.5441 106.522 39.7891 106.754 39.9667C106.986 40.1419 107.27 40.2294 107.607 40.2294C107.957 40.2294 108.249 40.1371 108.484 39.9525C108.72 39.7654 108.898 39.5145 109.016 39.1996C109.137 38.8824 109.197 38.5296 109.197 38.1414C109.197 37.7579 109.138 37.4122 109.02 37.1044C108.904 36.7943 108.728 36.5493 108.491 36.3694C108.256 36.1871 107.962 36.0959 107.607 36.0959C107.266 36.0959 106.979 36.1823 106.747 36.3552C106.515 36.5256 106.34 36.7647 106.222 37.0725C106.103 37.3779 106.044 37.7342 106.044 38.1414ZM113.53 40.9823C113.018 40.9823 112.578 40.8616 112.209 40.6201C111.839 40.3786 111.555 40.046 111.357 39.6222C111.158 39.1984 111.058 38.7143 111.058 38.1698C111.058 37.6158 111.16 37.1269 111.364 36.7032C111.57 36.277 111.856 35.9444 112.223 35.7053C112.592 35.4638 113.023 35.3431 113.516 35.3431C113.899 35.3431 114.245 35.4141 114.553 35.5562C114.86 35.6982 115.112 35.8971 115.309 36.1527C115.505 36.4084 115.627 36.7067 115.675 37.0476H114.837C114.773 36.799 114.631 36.5789 114.411 36.3871C114.193 36.193 113.899 36.0959 113.53 36.0959C113.203 36.0959 112.917 36.1812 112.67 36.3516C112.427 36.5197 112.236 36.7576 112.099 37.0654C111.964 37.3708 111.896 37.7294 111.896 38.1414C111.896 38.5628 111.963 38.9297 112.095 39.2422C112.23 39.5547 112.42 39.7974 112.663 39.9702C112.91 40.143 113.198 40.2294 113.53 40.2294C113.748 40.2294 113.945 40.1916 114.123 40.1158C114.3 40.0401 114.451 39.9312 114.574 39.7891C114.697 39.6471 114.785 39.4766 114.837 39.2777H115.675C115.627 39.5997 115.51 39.8897 115.323 40.1478C115.138 40.4035 114.893 40.6071 114.588 40.7586C114.285 40.9077 113.932 40.9823 113.53 40.9823ZM116.47 36.1954V35.4141H120.902V36.1954H119.112V40.8687H118.274V36.1954H116.47ZM122.124 40.8687V35.4141H124.355C124.942 35.4141 125.408 35.5467 125.754 35.8118C126.099 36.077 126.272 36.4274 126.272 36.863C126.272 37.1944 126.174 37.4513 125.977 37.6336C125.781 37.8135 125.529 37.9354 125.221 37.9993C125.422 38.0277 125.618 38.0988 125.807 38.2124C125.999 38.326 126.157 38.4823 126.283 38.6812C126.408 38.8776 126.471 39.1191 126.471 39.4056C126.471 39.6849 126.4 39.9347 126.258 40.1549C126.116 40.375 125.912 40.5491 125.647 40.6769C125.382 40.8047 125.065 40.8687 124.695 40.8687H122.124ZM122.92 40.1016H124.695C124.984 40.1016 125.21 40.033 125.374 39.8956C125.537 39.7583 125.619 39.5713 125.619 39.3346C125.619 39.0528 125.537 38.8315 125.374 38.6705C125.21 38.5071 124.984 38.4255 124.695 38.4255H122.92V40.1016ZM122.92 37.701H124.355C124.579 37.701 124.772 37.6703 124.933 37.6087C125.094 37.5448 125.218 37.4548 125.303 37.3388C125.39 37.2205 125.434 37.0808 125.434 36.9198C125.434 36.6901 125.338 36.5102 125.146 36.38C124.955 36.2474 124.691 36.1812 124.355 36.1812H122.92V37.701ZM130.027 40.9823C129.501 40.9823 129.048 40.8663 128.667 40.6343C128.288 40.3999 127.995 40.0732 127.789 39.6542C127.586 39.2328 127.484 38.7427 127.484 38.184C127.484 37.6253 127.586 37.1329 127.789 36.7067C127.995 36.2782 128.282 35.9444 128.649 35.7053C129.018 35.4638 129.449 35.3431 129.941 35.3431C130.225 35.3431 130.506 35.3904 130.783 35.4851C131.06 35.5798 131.312 35.7337 131.539 35.9468C131.767 36.1575 131.948 36.4368 132.083 36.7848C132.218 37.1329 132.285 37.5614 132.285 38.0704V38.4255H128.081V37.701H131.433C131.433 37.3933 131.371 37.1187 131.248 36.8772C131.127 36.6357 130.955 36.4451 130.73 36.3054C130.507 36.1658 130.244 36.0959 129.941 36.0959C129.608 36.0959 129.319 36.1788 129.075 36.3445C128.833 36.5079 128.648 36.7209 128.517 36.9837C128.387 37.2465 128.322 37.5282 128.322 37.8289V38.3118C128.322 38.7238 128.393 39.073 128.535 39.3594C128.68 39.6435 128.88 39.8601 129.135 40.0093C129.391 40.1561 129.688 40.2294 130.027 40.2294C130.247 40.2294 130.446 40.1987 130.623 40.1371C130.803 40.0732 130.958 39.9785 131.088 39.853C131.219 39.7252 131.319 39.5666 131.39 39.3772L132.2 39.6044C132.115 39.8791 131.971 40.1205 131.77 40.3289C131.569 40.5348 131.32 40.6958 131.025 40.8118C130.729 40.9255 130.396 40.9823 130.027 40.9823ZM137.211 37.7579V38.5391H134.199V37.7579H137.211ZM134.398 35.4141V40.8687H133.56V35.4141H134.398ZM137.85 35.4141V40.8687H137.012V35.4141H137.85ZM143.031 37.7579V38.5391H140.02V37.7579H143.031ZM140.218 35.4141V40.8687H139.38V35.4141H140.218ZM143.67 35.4141V40.8687H142.832V35.4141H143.67ZM145.925 37.3885H147.488C148.127 37.3885 148.616 37.5507 148.954 37.875C149.293 38.1994 149.462 38.6101 149.462 39.1073C149.462 39.434 149.386 39.7311 149.235 39.9986C149.083 40.2638 148.861 40.4757 148.567 40.6343C148.274 40.7905 147.914 40.8687 147.488 40.8687H145.201V35.4141H146.039V40.0874H147.488C147.819 40.0874 148.091 39.9998 148.304 39.8246C148.517 39.6494 148.624 39.4245 148.624 39.1499C148.624 38.8611 148.517 38.6255 148.304 38.4432C148.091 38.2609 147.819 38.1698 147.488 38.1698H145.925V37.3885ZM150.328 40.8687V35.4141H151.167V40.8687H150.328ZM153.539 39.6329L156.167 35.4141H157.132V40.8687H156.294V36.6499L153.681 40.8687H152.701V35.4141H153.539V39.6329ZM155.613 33.5959H156.394C156.394 33.9794 156.261 34.2931 155.996 34.537C155.731 34.7808 155.371 34.9027 154.917 34.9027C154.469 34.9027 154.113 34.7808 153.848 34.537C153.585 34.2931 153.453 33.9794 153.453 33.5959H154.235C154.235 33.7806 154.286 33.9428 154.387 34.0824C154.492 34.2221 154.668 34.2919 154.917 34.2919C155.165 34.2919 155.343 34.2221 155.449 34.0824C155.558 33.9428 155.613 33.7806 155.613 33.5959ZM1.30682 56.9141C1.16477 56.9141 1.03812 56.9023 0.926847 56.8786C0.815578 56.8573 0.738636 56.836 0.696023 56.8147L0.909091 56.076C1.11269 56.1281 1.29261 56.1471 1.44886 56.1329C1.60511 56.1187 1.74361 56.0488 1.86435 55.9233C1.98745 55.8002 2.09991 55.6002 2.2017 55.3232L2.35795 54.8971L0.340909 49.4141H1.25L2.75568 53.7607H2.8125L4.31818 49.4141H5.22727L2.91193 55.6641C2.80777 55.9458 2.67874 56.179 2.52486 56.3637C2.37098 56.5507 2.19223 56.6892 1.98864 56.7792C1.78741 56.8691 1.56013 56.9141 1.30682 56.9141ZM9.98402 51.7579V52.5391H6.97266V51.7579H9.98402ZM7.17152 49.4141V54.8687H6.33345V49.4141H7.17152ZM10.6232 49.4141V54.8687H9.78516V49.4141H10.6232ZM12.9918 53.6329L15.6197 49.4141H16.5856V54.8687H15.7475V50.6499L13.1339 54.8687H12.1538V49.4141H12.9918V53.6329ZM18.1206 54.8687V49.4141H20.3507C20.9378 49.4141 21.4042 49.5467 21.7498 49.8118C22.0955 50.077 22.2683 50.4274 22.2683 50.863C22.2683 51.1944 22.17 51.4513 21.9735 51.6336C21.777 51.8135 21.5249 51.9354 21.2172 51.9993C21.4184 52.0277 21.6137 52.0988 21.8031 52.2124C21.9949 52.326 22.1535 52.4823 22.2789 52.6812C22.4044 52.8776 22.4672 53.1191 22.4672 53.4056C22.4672 53.6849 22.3961 53.9347 22.2541 54.1549C22.112 54.375 21.9084 54.5491 21.6433 54.6769C21.3781 54.8047 21.0609 54.8687 20.6916 54.8687H18.1206ZM18.916 54.1016H20.6916C20.9804 54.1016 21.2065 54.033 21.3699 53.8956C21.5332 53.7583 21.6149 53.5713 21.6149 53.3346C21.6149 53.0528 21.5332 52.8315 21.3699 52.6705C21.2065 52.5071 20.9804 52.4255 20.6916 52.4255H18.916V54.1016ZM18.916 51.701H20.3507C20.5756 51.701 20.7685 51.6703 20.9295 51.6087C21.0905 51.5448 21.2136 51.4548 21.2988 51.3388C21.3864 51.2205 21.4302 51.0808 21.4302 50.9198C21.4302 50.6901 21.3343 50.5102 21.1426 50.38C20.9508 50.2474 20.6868 50.1812 20.3507 50.1812H18.916V51.701ZM26.0227 54.9823C25.4972 54.9823 25.0438 54.8663 24.6626 54.6343C24.2839 54.3999 23.9915 54.0732 23.7855 53.6542C23.5819 53.2328 23.4801 52.7427 23.4801 52.184C23.4801 51.6253 23.5819 51.1329 23.7855 50.7067C23.9915 50.2782 24.2779 49.9444 24.6449 49.7053C25.0142 49.4638 25.4451 49.3431 25.9375 49.3431C26.2216 49.3431 26.5021 49.3904 26.7791 49.4851C27.0561 49.5798 27.3082 49.7337 27.5355 49.9468C27.7628 50.1575 27.9439 50.4368 28.0788 50.7848C28.2138 51.1329 28.2812 51.5614 28.2812 52.0704V52.4255H24.0767V51.701H27.429C27.429 51.3933 27.3674 51.1187 27.2443 50.8772C27.1236 50.6357 26.9508 50.4451 26.7259 50.3054C26.5033 50.1658 26.2405 50.0959 25.9375 50.0959C25.6037 50.0959 25.3149 50.1788 25.071 50.3445C24.8295 50.5079 24.6437 50.7209 24.5135 50.9837C24.3833 51.2465 24.3182 51.5282 24.3182 51.8289V52.3118C24.3182 52.7238 24.3892 53.073 24.5312 53.3594C24.6757 53.6435 24.8757 53.8601 25.1314 54.0093C25.3871 54.1561 25.6842 54.2294 26.0227 54.2294C26.2429 54.2294 26.4418 54.1987 26.6193 54.1371C26.7992 54.0732 26.9543 53.9785 27.0845 53.853C27.2147 53.7252 27.3153 53.5666 27.3864 53.3772L28.196 53.6044C28.1108 53.8791 27.9676 54.1205 27.7663 54.3289C27.5651 54.5348 27.3165 54.6958 27.0206 54.8118C26.7247 54.9255 26.392 54.9823 26.0227 54.9823ZM29.5561 56.9141V49.4141H30.3658V50.2806H30.4652C30.5268 50.1859 30.612 50.0651 30.7209 49.9184C30.8321 49.7692 30.9908 49.6366 31.1967 49.5206C31.4051 49.4023 31.6868 49.3431 32.0419 49.3431C32.5012 49.3431 32.906 49.4579 33.2564 49.6875C33.6068 49.9172 33.8802 50.2427 34.0767 50.6641C34.2732 51.0855 34.3714 51.5827 34.3714 52.1556C34.3714 52.7332 34.2732 53.2339 34.0767 53.6577C33.8802 54.0791 33.608 54.4058 33.2599 54.6378C32.9119 54.8675 32.5107 54.9823 32.0561 54.9823C31.7057 54.9823 31.4252 54.9243 31.2145 54.8083C31.0038 54.6899 30.8416 54.5562 30.728 54.407C30.6143 54.2555 30.5268 54.13 30.4652 54.0306H30.3942V56.9141H29.5561ZM30.38 52.1414C30.38 52.5533 30.4403 52.9167 30.5611 53.2316C30.6818 53.5441 30.8582 53.7891 31.0902 53.9667C31.3222 54.1419 31.6063 54.2294 31.9425 54.2294C32.2929 54.2294 32.5852 54.1371 32.8196 53.9525C33.0563 53.7654 33.2339 53.5145 33.3523 53.1996C33.473 52.8824 33.5334 52.5296 33.5334 52.1414C33.5334 51.7579 33.4742 51.4122 33.3558 51.1044C33.2398 50.7943 33.0634 50.5493 32.8267 50.3694C32.5923 50.1871 32.2976 50.0959 31.9425 50.0959C31.6016 50.0959 31.3151 50.1823 31.0831 50.3552C30.8511 50.5256 30.6759 50.7647 30.5575 51.0725C30.4392 51.3779 30.38 51.7342 30.38 52.1414ZM37.8658 54.9823C37.3544 54.9823 36.9141 54.8616 36.5447 54.6201C36.1754 54.3786 35.8913 54.046 35.6925 53.6222C35.4936 53.1984 35.3942 52.7143 35.3942 52.1698C35.3942 51.6158 35.496 51.1269 35.6996 50.7032C35.9055 50.277 36.192 49.9444 36.5589 49.7053C36.9283 49.4638 37.3591 49.3431 37.8516 49.3431C38.2351 49.3431 38.5807 49.4141 38.8885 49.5562C39.1963 49.6982 39.4484 49.8971 39.6449 50.1527C39.8414 50.4084 39.9633 50.7067 40.0107 51.0476H39.1726C39.1087 50.799 38.9666 50.5789 38.7464 50.3871C38.5286 50.193 38.2351 50.0959 37.8658 50.0959C37.5391 50.0959 37.2526 50.1812 37.0064 50.3516C36.7625 50.5197 36.572 50.7576 36.4347 51.0654C36.2997 51.3708 36.2322 51.7294 36.2322 52.1414C36.2322 52.5628 36.2985 52.9297 36.4311 53.2422C36.5661 53.5547 36.7554 53.7974 36.9993 53.9702C37.2455 54.143 37.5343 54.2294 37.8658 54.2294C38.0836 54.2294 38.2812 54.1916 38.4588 54.1158C38.6364 54.0401 38.7867 53.9312 38.9098 53.7891C39.0329 53.6471 39.1205 53.4766 39.1726 53.2777H40.0107C39.9633 53.5997 39.8461 53.8897 39.6591 54.1478C39.4744 54.4035 39.2294 54.6071 38.924 54.7586C38.621 54.9077 38.2682 54.9823 37.8658 54.9823ZM42.0739 53.6329L44.7017 49.4141H45.6676V54.8687H44.8295V50.6499L42.2159 54.8687H41.2358V49.4141H42.0739V53.6329ZM46.4604 50.1954V49.4141H50.8922V50.1954H49.1025V54.8687H48.2644V50.1954H46.4604ZM54.1184 54.9823C53.5929 54.9823 53.1395 54.8663 52.7583 54.6343C52.3796 54.3999 52.0872 54.0732 51.8812 53.6542C51.6776 53.2328 51.5758 52.7427 51.5758 52.184C51.5758 51.6253 51.6776 51.1329 51.8812 50.7067C52.0872 50.2782 52.3736 49.9444 52.7406 49.7053C53.1099 49.4638 53.5408 49.3431 54.0332 49.3431C54.3173 49.3431 54.5978 49.3904 54.8748 49.4851C55.1518 49.5798 55.4039 49.7337 55.6312 49.9468C55.8585 50.1575 56.0396 50.4368 56.1745 50.7848C56.3095 51.1329 56.377 51.5614 56.377 52.0704V52.4255H52.1724V51.701H55.5247C55.5247 51.3933 55.4631 51.1187 55.34 50.8772C55.2193 50.6357 55.0465 50.4451 54.8216 50.3054C54.599 50.1658 54.3362 50.0959 54.0332 50.0959C53.6994 50.0959 53.4106 50.1788 53.1667 50.3445C52.9252 50.5079 52.7394 50.7209 52.6092 50.9837C52.479 51.2465 52.4139 51.5282 52.4139 51.8289V52.3118C52.4139 52.7238 52.4849 53.073 52.627 53.3594C52.7714 53.6435 52.9714 53.8601 53.2271 54.0093C53.4828 54.1561 53.7799 54.2294 54.1184 54.2294C54.3386 54.2294 54.5375 54.1987 54.715 54.1371C54.8949 54.0732 55.05 53.9785 55.1802 53.853C55.3104 53.7252 55.411 53.5666 55.4821 53.3772L56.2917 53.6044C56.2065 53.8791 56.0633 54.1205 55.862 54.3289C55.6608 54.5348 55.4122 54.6958 55.1163 54.8118C54.8204 54.9255 54.4877 54.9823 54.1184 54.9823ZM57.144 50.1954V49.4141H61.5758V50.1954H59.786V54.8687H58.948V50.1954H57.144ZM69.2614 51.7579V52.5391H66.25V51.7579H69.2614ZM66.4489 49.4141V54.8687H65.6108V49.4141H66.4489ZM69.9006 49.4141V54.8687H69.0625V49.4141H69.9006ZM73.0362 54.9965C72.6906 54.9965 72.3769 54.9314 72.0952 54.8012C71.8134 54.6686 71.5897 54.478 71.424 54.2294C71.2583 53.9785 71.1754 53.6755 71.1754 53.3204C71.1754 53.0079 71.237 52.7545 71.3601 52.5604C71.4832 52.3639 71.6477 52.21 71.8537 52.0988C72.0597 51.9875 72.2869 51.9046 72.5355 51.8502C72.7865 51.7934 73.0386 51.7484 73.2919 51.7152C73.6233 51.6726 73.892 51.6407 74.098 51.6194C74.3063 51.5957 74.4579 51.5566 74.5526 51.5022C74.6496 51.4477 74.6982 51.353 74.6982 51.2181V51.1897C74.6982 50.8393 74.6023 50.567 74.4105 50.3729C74.2211 50.1788 73.9335 50.0817 73.5476 50.0817C73.1475 50.0817 72.8338 50.1693 72.6065 50.3445C72.3793 50.5197 72.2195 50.7067 72.1271 50.9056L71.3317 50.6215C71.4737 50.2901 71.6631 50.032 71.8999 49.8473C72.139 49.6603 72.3994 49.5301 72.6811 49.4567C72.9652 49.381 73.2446 49.3431 73.5192 49.3431C73.6944 49.3431 73.8956 49.3644 74.1229 49.407C74.3525 49.4473 74.5739 49.5313 74.7869 49.6591C75.0024 49.787 75.1811 49.9799 75.3232 50.238C75.4652 50.496 75.5362 50.8417 75.5362 51.2749V54.8687H74.6982V54.13H74.6555C74.5987 54.2484 74.504 54.375 74.3714 54.51C74.2389 54.6449 74.0625 54.7598 73.8423 54.8544C73.6222 54.9491 73.3535 54.9965 73.0362 54.9965ZM73.1641 54.2437C73.4955 54.2437 73.7749 54.1785 74.0021 54.0483C74.2318 53.9181 74.4046 53.75 74.5206 53.5441C74.639 53.3381 74.6982 53.1215 74.6982 52.8942V52.1272C74.6626 52.1698 74.5845 52.2089 74.4638 52.2444C74.3454 52.2775 74.2081 52.3071 74.0518 52.3331C73.898 52.3568 73.7476 52.3781 73.6009 52.3971C73.4564 52.4136 73.3393 52.4278 73.2493 52.4397C73.0315 52.4681 72.8279 52.5142 72.6385 52.5782C72.4515 52.6397 72.3 52.7332 72.1839 52.8587C72.0703 52.9818 72.0135 53.1499 72.0135 53.363C72.0135 53.6542 72.1212 53.8743 72.3366 54.0235C72.5545 54.1703 72.8303 54.2437 73.1641 54.2437ZM77.0659 56.9141V49.4141H77.8755V50.2806H77.975C78.0365 50.1859 78.1217 50.0651 78.2306 49.9184C78.3419 49.7692 78.5005 49.6366 78.7065 49.5206C78.9148 49.4023 79.1966 49.3431 79.5517 49.3431C80.0109 49.3431 80.4158 49.4579 80.7662 49.6875C81.1165 49.9172 81.39 50.2427 81.5865 50.6641C81.783 51.0855 81.8812 51.5827 81.8812 52.1556C81.8812 52.7332 81.783 53.2339 81.5865 53.6577C81.39 54.0791 81.1177 54.4058 80.7697 54.6378C80.4217 54.8675 80.0204 54.9823 79.5659 54.9823C79.2155 54.9823 78.935 54.9243 78.7243 54.8083C78.5136 54.6899 78.3514 54.5562 78.2377 54.407C78.1241 54.2555 78.0365 54.13 77.975 54.0306H77.9039V56.9141H77.0659ZM77.8897 52.1414C77.8897 52.5533 77.9501 52.9167 78.0708 53.2316C78.1916 53.5441 78.368 53.7891 78.6 53.9667C78.832 54.1419 79.1161 54.2294 79.4522 54.2294C79.8026 54.2294 80.095 54.1371 80.3294 53.9525C80.5661 53.7654 80.7437 53.5145 80.862 53.1996C80.9828 52.8824 81.0431 52.5296 81.0431 52.1414C81.0431 51.7579 80.984 51.4122 80.8656 51.1044C80.7496 50.7943 80.5732 50.5493 80.3365 50.3694C80.1021 50.1871 79.8074 50.0959 79.4522 50.0959C79.1113 50.0959 78.8249 50.1823 78.5929 50.3552C78.3609 50.5256 78.1857 50.7647 78.0673 51.0725C77.9489 51.3779 77.8897 51.7342 77.8897 52.1414ZM85.3755 54.9823C84.8831 54.9823 84.4511 54.8651 84.0794 54.6307C83.71 54.3964 83.4212 54.0685 83.2129 53.6471C83.0069 53.2257 82.9039 52.7332 82.9039 52.1698C82.9039 51.6016 83.0069 51.1056 83.2129 50.6819C83.4212 50.2581 83.71 49.929 84.0794 49.6946C84.4511 49.4603 84.8831 49.3431 85.3755 49.3431C85.868 49.3431 86.2988 49.4603 86.6681 49.6946C87.0398 49.929 87.3287 50.2581 87.5346 50.6819C87.743 51.1056 87.8471 51.6016 87.8471 52.1698C87.8471 52.7332 87.743 53.2257 87.5346 53.6471C87.3287 54.0685 87.0398 54.3964 86.6681 54.6307C86.2988 54.8651 85.868 54.9823 85.3755 54.9823ZM85.3755 54.2294C85.7496 54.2294 86.0574 54.1336 86.2988 53.9418C86.5403 53.75 86.719 53.4979 86.835 53.1854C86.9511 52.8729 87.0091 52.5344 87.0091 52.1698C87.0091 51.8052 86.9511 51.4655 86.835 51.1506C86.719 50.8357 86.5403 50.5812 86.2988 50.3871C86.0574 50.193 85.7496 50.0959 85.3755 50.0959C85.0015 50.0959 84.6937 50.193 84.4522 50.3871C84.2108 50.5812 84.032 50.8357 83.916 51.1506C83.8 51.4655 83.742 51.8052 83.742 52.1698C83.742 52.5344 83.8 52.8729 83.916 53.1854C84.032 53.4979 84.2108 53.75 84.4522 53.9418C84.6937 54.1336 85.0015 54.2294 85.3755 54.2294ZM88.544 56.4312V54.0874H88.9986C89.1098 53.9714 89.2057 53.8459 89.2862 53.711C89.3667 53.576 89.4366 53.4162 89.4957 53.2316C89.5573 53.0446 89.6094 52.8173 89.652 52.5498C89.6946 52.2799 89.7325 51.9544 89.7656 51.5732L89.9503 49.4141H93.4162V54.0874H94.2543V56.4312H93.4162V54.8687H89.3821V56.4312H88.544ZM89.9503 54.0874H92.5781V50.1954H90.7315L90.5895 51.5732C90.5303 52.1437 90.4569 52.6421 90.3693 53.0682C90.2817 53.4944 90.142 53.8341 89.9503 54.0874ZM99.0172 51.7579V52.5391H96.0059V51.7579H99.0172ZM96.2047 49.4141V54.8687H95.3667V49.4141H96.2047ZM99.6564 49.4141V54.8687H98.8184V49.4141H99.6564ZM103.403 54.9823C102.91 54.9823 102.478 54.8651 102.107 54.6307C101.737 54.3964 101.449 54.0685 101.24 53.6471C101.034 53.2257 100.931 52.7332 100.931 52.1698C100.931 51.6016 101.034 51.1056 101.24 50.6819C101.449 50.2581 101.737 49.929 102.107 49.6946C102.478 49.4603 102.91 49.3431 103.403 49.3431C103.895 49.3431 104.326 49.4603 104.695 49.6946C105.067 49.929 105.356 50.2581 105.562 50.6819C105.77 51.1056 105.874 51.6016 105.874 52.1698C105.874 52.7332 105.77 53.2257 105.562 53.6471C105.356 54.0685 105.067 54.3964 104.695 54.6307C104.326 54.8651 103.895 54.9823 103.403 54.9823ZM103.403 54.2294C103.777 54.2294 104.085 54.1336 104.326 53.9418C104.568 53.75 104.746 53.4979 104.862 53.1854C104.978 52.8729 105.036 52.5344 105.036 52.1698C105.036 51.8052 104.978 51.4655 104.862 51.1506C104.746 50.8357 104.568 50.5812 104.326 50.3871C104.085 50.193 103.777 50.0959 103.403 50.0959C103.029 50.0959 102.721 50.193 102.48 50.3871C102.238 50.5812 102.059 50.8357 101.943 51.1506C101.827 51.4655 101.769 51.8052 101.769 52.1698C101.769 52.5344 101.827 52.8729 101.943 53.1854C102.059 53.4979 102.238 53.75 102.48 53.9418C102.721 54.1336 103.029 54.2294 103.403 54.2294ZM110.52 49.4141V50.1954H107.992V54.8687H107.154V49.4141H110.52ZM113.676 54.9823C113.184 54.9823 112.752 54.8651 112.38 54.6307C112.011 54.3964 111.722 54.0685 111.514 53.6471C111.308 53.2257 111.205 52.7332 111.205 52.1698C111.205 51.6016 111.308 51.1056 111.514 50.6819C111.722 50.2581 112.011 49.929 112.38 49.6946C112.752 49.4603 113.184 49.3431 113.676 49.3431C114.169 49.3431 114.6 49.4603 114.969 49.6946C115.341 49.929 115.629 50.2581 115.835 50.6819C116.044 51.1056 116.148 51.6016 116.148 52.1698C116.148 52.7332 116.044 53.2257 115.835 53.6471C115.629 54.0685 115.341 54.3964 114.969 54.6307C114.6 54.8651 114.169 54.9823 113.676 54.9823ZM113.676 54.2294C114.05 54.2294 114.358 54.1336 114.6 53.9418C114.841 53.75 115.02 53.4979 115.136 53.1854C115.252 52.8729 115.31 52.5344 115.31 52.1698C115.31 51.8052 115.252 51.4655 115.136 51.1506C115.02 50.8357 114.841 50.5812 114.6 50.3871C114.358 50.193 114.05 50.0959 113.676 50.0959C113.302 50.0959 112.994 50.193 112.753 50.3871C112.512 50.5812 112.333 50.8357 112.217 51.1506C112.101 51.4655 112.043 51.8052 112.043 52.1698C112.043 52.5344 112.101 52.8729 112.217 53.1854C112.333 53.4979 112.512 53.75 112.753 53.9418C112.994 54.1336 113.302 54.2294 113.676 54.2294ZM120.865 49.4141L122.172 51.6442L123.478 49.4141H124.444L122.683 52.1414L124.444 54.8687H123.478L122.172 52.7522L120.865 54.8687H119.899L121.632 52.1414L119.899 49.4141H120.865ZM127.631 54.9823C127.139 54.9823 126.707 54.8651 126.335 54.6307C125.966 54.3964 125.677 54.0685 125.469 53.6471C125.263 53.2257 125.16 52.7332 125.16 52.1698C125.16 51.6016 125.263 51.1056 125.469 50.6819C125.677 50.2581 125.966 49.929 126.335 49.6946C126.707 49.4603 127.139 49.3431 127.631 49.3431C128.124 49.3431 128.555 49.4603 128.924 49.6946C129.296 49.929 129.585 50.2581 129.79 50.6819C129.999 51.1056 130.103 51.6016 130.103 52.1698C130.103 52.7332 129.999 53.2257 129.79 53.6471C129.585 54.0685 129.296 54.3964 128.924 54.6307C128.555 54.8651 128.124 54.9823 127.631 54.9823ZM127.631 54.2294C128.005 54.2294 128.313 54.1336 128.555 53.9418C128.796 53.75 128.975 53.4979 129.091 53.1854C129.207 52.8729 129.265 52.5344 129.265 52.1698C129.265 51.8052 129.207 51.4655 129.091 51.1506C128.975 50.8357 128.796 50.5812 128.555 50.3871C128.313 50.193 128.005 50.0959 127.631 50.0959C127.257 50.0959 126.95 50.193 126.708 50.3871C126.467 50.5812 126.288 50.8357 126.172 51.1506C126.056 51.4655 125.998 51.8052 125.998 52.1698C125.998 52.5344 126.056 52.8729 126.172 53.1854C126.288 53.4979 126.467 53.75 126.708 53.9418C126.95 54.1336 127.257 54.2294 127.631 54.2294ZM131.041 53.4766H131.936C131.955 53.7228 132.066 53.9098 132.27 54.0377C132.476 54.1655 132.744 54.2294 133.073 54.2294C133.409 54.2294 133.696 54.1608 133.936 54.0235C134.175 53.8838 134.294 53.6589 134.294 53.3488C134.294 53.1665 134.249 53.0079 134.159 52.8729C134.069 52.7356 133.943 52.6291 133.779 52.5533C133.616 52.4776 133.423 52.4397 133.2 52.4397H132.263V51.6868H133.2C133.534 51.6868 133.78 51.6111 133.939 51.4596C134.1 51.308 134.181 51.1187 134.181 50.8914C134.181 50.6475 134.094 50.4522 133.921 50.3054C133.749 50.1563 133.503 50.0817 133.186 50.0817C132.867 50.0817 132.6 50.1539 132.387 50.2983C132.174 50.4404 132.062 50.6239 132.05 50.8488H131.169C131.179 50.5552 131.269 50.296 131.439 50.0711C131.61 49.8438 131.842 49.6662 132.135 49.5384C132.429 49.4082 132.765 49.3431 133.144 49.3431C133.527 49.3431 133.86 49.4106 134.142 49.5455C134.426 49.6781 134.645 49.8592 134.798 50.0888C134.955 50.3161 135.033 50.5741 135.033 50.863C135.033 51.1707 134.946 51.4193 134.774 51.6087C134.601 51.7981 134.384 51.933 134.124 52.0135V52.0704C134.33 52.0846 134.508 52.1508 134.66 52.2692C134.814 52.3852 134.933 52.5379 135.019 52.7273C135.104 52.9143 135.146 53.1215 135.146 53.3488C135.146 53.6802 135.058 53.969 134.88 54.2152C134.703 54.4591 134.459 54.6485 134.149 54.7834C133.838 54.916 133.485 54.9823 133.087 54.9823C132.701 54.9823 132.355 54.9196 132.05 54.7941C131.744 54.6662 131.502 54.4899 131.322 54.265C131.144 54.0377 131.051 53.7749 131.041 53.4766ZM139.605 54.8687V50.1812H138.156C137.829 50.1812 137.573 50.2569 137.385 50.4084C137.198 50.5599 137.105 50.7683 137.105 51.0334C137.105 51.2938 137.189 51.4986 137.357 51.6478C137.528 51.7969 137.761 51.8715 138.057 51.8715H139.818V52.6527H138.057C137.687 52.6527 137.369 52.5876 137.101 52.4574C136.834 52.3272 136.628 52.1414 136.483 51.8999C136.339 51.6561 136.267 51.3672 136.267 51.0334C136.267 50.6973 136.343 50.4084 136.494 50.1669C136.646 49.9255 136.862 49.7396 137.144 49.6094C137.428 49.4792 137.765 49.4141 138.156 49.4141H140.4V54.8687H139.605ZM135.969 54.8687L137.517 52.1556H138.426L136.878 54.8687H135.969ZM142.777 53.6329L145.405 49.4141H146.371V54.8687H145.533V50.6499L142.919 54.8687H141.939V49.4141H142.777V53.6329ZM144.851 47.5959H145.632C145.632 47.9794 145.5 48.2931 145.234 48.537C144.969 48.7808 144.609 48.9027 144.155 48.9027C143.707 48.9027 143.351 48.7808 143.086 48.537C142.823 48.2931 142.692 47.9794 142.692 47.5959H143.473C143.473 47.7806 143.524 47.9428 143.626 48.0824C143.73 48.2221 143.906 48.2919 144.155 48.2919C144.403 48.2919 144.581 48.2221 144.688 48.0824C144.796 47.9428 144.851 47.7806 144.851 47.5959ZM150.122 54.9823C149.61 54.9823 149.17 54.8616 148.801 54.6201C148.431 54.3786 148.147 54.046 147.948 53.6222C147.749 53.1984 147.65 52.7143 147.65 52.1698C147.65 51.6158 147.752 51.1269 147.955 50.7032C148.161 50.277 148.448 49.9444 148.815 49.7053C149.184 49.4638 149.615 49.3431 150.107 49.3431C150.491 49.3431 150.837 49.4141 151.144 49.5562C151.452 49.6982 151.704 49.8971 151.901 50.1527C152.097 50.4084 152.219 50.7067 152.267 51.0476H151.428C151.365 50.799 151.222 50.5789 151.002 50.3871C150.785 50.193 150.491 50.0959 150.122 50.0959C149.795 50.0959 149.508 50.1812 149.262 50.3516C149.018 50.5197 148.828 50.7576 148.691 51.0654C148.556 51.3708 148.488 51.7294 148.488 52.1414C148.488 52.5628 148.554 52.9297 148.687 53.2422C148.822 53.5547 149.011 53.7974 149.255 53.9702C149.501 54.143 149.79 54.2294 150.122 54.2294C150.339 54.2294 150.537 54.1916 150.715 54.1158C150.892 54.0401 151.043 53.9312 151.166 53.7891C151.289 53.6471 151.376 53.4766 151.428 53.2777H152.267C152.219 53.5997 152.102 53.8897 151.915 54.1478C151.73 54.4035 151.485 54.6071 151.18 54.7586C150.877 54.9077 150.524 54.9823 150.122 54.9823ZM153.062 50.1954V49.4141H157.494V50.1954H155.704V54.8687H154.866V50.1954H153.062ZM158.716 54.8687V49.4141H160.946C161.533 49.4141 162 49.5467 162.346 49.8118C162.691 50.077 162.864 50.4274 162.864 50.863C162.864 51.1944 162.766 51.4513 162.569 51.6336C162.373 51.8135 162.121 51.9354 161.813 51.9993C162.014 52.0277 162.209 52.0988 162.399 52.2124C162.591 52.326 162.749 52.4823 162.875 52.6812C163 52.8776 163.063 53.1191 163.063 53.4056C163.063 53.6849 162.992 53.9347 162.85 54.1549C162.708 54.375 162.504 54.5491 162.239 54.6769C161.974 54.8047 161.657 54.8687 161.287 54.8687H158.716ZM159.512 54.1016H161.287C161.576 54.1016 161.802 54.033 161.966 53.8956C162.129 53.7583 162.211 53.5713 162.211 53.3346C162.211 53.0528 162.129 52.8315 161.966 52.6705C161.802 52.5071 161.576 52.4255 161.287 52.4255H159.512V54.1016ZM159.512 51.701H160.946C161.171 51.701 161.364 51.6703 161.525 51.6087C161.686 51.5448 161.809 51.4548 161.895 51.3388C161.982 51.2205 162.026 51.0808 162.026 50.9198C162.026 50.6901 161.93 50.5102 161.738 50.38C161.547 50.2474 161.283 50.1812 160.946 50.1812H159.512V51.701ZM165.937 54.9965C165.591 54.9965 165.277 54.9314 164.996 54.8012C164.714 54.6686 164.49 54.478 164.324 54.2294C164.159 53.9785 164.076 53.6755 164.076 53.3204C164.076 53.0079 164.137 52.7545 164.26 52.5604C164.384 52.3639 164.548 52.21 164.754 52.0988C164.96 51.9875 165.187 51.9046 165.436 51.8502C165.687 51.7934 165.939 51.7484 166.192 51.7152C166.524 51.6726 166.792 51.6407 166.998 51.6194C167.207 51.5957 167.358 51.5566 167.453 51.5022C167.55 51.4477 167.599 51.353 167.599 51.2181V51.1897C167.599 50.8393 167.503 50.567 167.311 50.3729C167.122 50.1788 166.834 50.0817 166.448 50.0817C166.048 50.0817 165.734 50.1693 165.507 50.3445C165.28 50.5197 165.12 50.7067 165.028 50.9056L164.232 50.6215C164.374 50.2901 164.564 50.032 164.8 49.8473C165.039 49.6603 165.3 49.5301 165.581 49.4567C165.866 49.381 166.145 49.3431 166.42 49.3431C166.595 49.3431 166.796 49.3644 167.023 49.407C167.253 49.4473 167.474 49.5313 167.687 49.6591C167.903 49.787 168.081 49.9799 168.224 50.238C168.366 50.496 168.437 50.8417 168.437 51.2749V54.8687H167.599V54.13H167.556C167.499 54.2484 167.404 54.375 167.272 54.51C167.139 54.6449 166.963 54.7598 166.743 54.8544C166.523 54.9491 166.254 54.9965 165.937 54.9965ZM166.064 54.2437C166.396 54.2437 166.675 54.1785 166.903 54.0483C167.132 53.9181 167.305 53.75 167.421 53.5441C167.539 53.3381 167.599 53.1215 167.599 52.8942V52.1272C167.563 52.1698 167.485 52.2089 167.364 52.2444C167.246 52.2775 167.108 52.3071 166.952 52.3331C166.798 52.3568 166.648 52.3781 166.501 52.3971C166.357 52.4136 166.24 52.4278 166.15 52.4397C165.932 52.4681 165.728 52.5142 165.539 52.5782C165.352 52.6397 165.2 52.7332 165.084 52.8587C164.971 52.9818 164.914 53.1499 164.914 53.363C164.914 53.6542 165.022 53.8743 165.237 54.0235C165.455 54.1703 165.731 54.2437 166.064 54.2437Z" fill="#797979"/>
</svg>
