<svg width="44" height="44" viewBox="0 0 44 44" fill="none" xmlns="http://www.w3.org/2000/svg">
<path d="M17.4167 18.3333C19.4417 18.3333 21.0833 16.6917 21.0833 14.6667C21.0833 12.6416 19.4417 11 17.4167 11C15.3916 11 13.75 12.6416 13.75 14.6667C13.75 16.6917 15.3916 18.3333 17.4167 18.3333Z" stroke="#225CF3" stroke-width="2" stroke-linecap="round" stroke-linejoin="round"/>
<path d="M17.4166 11C18.3891 11 19.3217 11.3863 20.0093 12.0739C20.697 12.7616 21.0833 13.6942 21.0833 14.6667C21.0833 15.6391 20.697 16.5718 20.0093 17.2594C19.3217 17.947 18.3891 18.3333 17.4166 18.3333" stroke="#225CF3" stroke-width="2" stroke-linecap="round" stroke-linejoin="round"/>
<path d="M25.6666 11C26.6391 11 27.5717 11.3863 28.2594 12.0739C28.947 12.7616 29.3333 13.6942 29.3333 14.6667C29.3333 15.6391 28.947 16.5718 28.2594 17.2594C27.5717 17.947 26.6391 18.3333 25.6666 18.3333" stroke="#225CF3" stroke-width="2" stroke-linecap="round" stroke-linejoin="round"/>
<path d="M25.6666 11C26.6391 11 27.5717 11.3863 28.2594 12.0739C28.947 12.7616 29.3333 13.6942 29.3333 14.6667C29.3333 15.6391 28.947 16.5718 28.2594 17.2594C27.5717 17.947 26.6391 18.3333 25.6666 18.3333" stroke="#225CF3" stroke-width="2" stroke-linecap="round" stroke-linejoin="round"/>
<path d="M23.8333 26.5832C23.8333 25.6107 23.447 24.6781 22.7594 23.9904C22.0718 23.3028 21.1391 22.9165 20.1667 22.9165H14.6667C13.6942 22.9165 12.7616 23.3028 12.0739 23.9904C11.3863 24.6781 11 25.6107 11 26.5832" stroke="#225CF3" stroke-width="2" stroke-linecap="round" stroke-linejoin="round"/>
<path d="M33 26.5832C33 25.6107 32.6137 24.6781 31.9261 23.9904C31.2384 23.3028 30.3058 22.9165 29.3333 22.9165H27.5" stroke="#225CF3" stroke-width="2" stroke-linecap="round" stroke-linejoin="round"/>
<path d="M22.9295 33H33C34.4587 33 35.8576 32.4205 36.8891 31.3891C37.9205 30.3576 38.5 28.9587 38.5 27.5V11C38.5 9.54131 37.9205 8.14236 36.8891 7.11091C35.8576 6.07946 34.4587 5.5 33 5.5H11C9.54131 5.5 8.14236 6.07946 7.11091 7.11091C6.07946 8.14236 5.5 9.54131 5.5 11V27.5C5.5 28.9587 6.07946 30.3576 7.11091 31.3891C8.14236 32.4205 9.54131 33 11 33H14.6795V37.4787C14.6795 37.6707 14.7337 37.8588 14.836 38.0214C14.9382 38.184 15.0843 38.3143 15.2574 38.3975C15.4305 38.4807 15.6235 38.5133 15.8143 38.4916C16.0051 38.4699 16.1859 38.3947 16.3359 38.2748L22.9295 33Z" stroke="#225CF3" stroke-width="2" stroke-linecap="round" stroke-linejoin="round"/>
</svg>
