<svg width="44" height="44" viewBox="0 0 44 44" fill="none" xmlns="http://www.w3.org/2000/svg">
<path d="M20.1667 38.5002H11C9.54131 38.5002 8.14236 37.9207 7.11091 36.8893C6.07946 35.8578 5.5 34.4589 5.5 33.0002V17.4168C5.5 16.2013 5.98289 15.0355 6.84243 14.1759C7.70197 13.3164 8.86776 12.8335 10.0833 12.8335H33.9167C35.1322 12.8335 36.298 13.3164 37.1576 14.1759C38.0171 15.0355 38.5 16.2013 38.5 17.4168V20.1668" stroke="#225CF3" stroke-width="2" stroke-linecap="round" stroke-linejoin="round"/>
<path d="M28.4167 12.8333V9.16667C28.4167 8.19421 28.0304 7.26157 27.3428 6.57394C26.6551 5.88631 25.7225 5.5 24.75 5.5H19.25C18.2776 5.5 17.3449 5.88631 16.6573 6.57394C15.9697 7.26157 15.5834 8.19421 15.5834 9.16667V12.8333" stroke="#225CF3" stroke-width="2" stroke-linecap="round" stroke-linejoin="round"/>
<path d="M22 23.8335H5.5" stroke="#225CF3" stroke-width="2" stroke-linecap="round" stroke-linejoin="round"/>
<path d="M33.0001 40.3332C37.0502 40.3332 40.3334 37.0499 40.3334 32.9998C40.3334 28.9497 37.0502 25.6665 33.0001 25.6665C28.95 25.6665 25.6667 28.9497 25.6667 32.9998C25.6667 37.0499 28.95 40.3332 33.0001 40.3332Z" stroke="#225CF3" stroke-width="2" stroke-linecap="round" stroke-linejoin="round"/>
<path d="M30.7083 32.7926L32.5416 34.626L35.2916 31.876" stroke="#225CF3" stroke-width="2" stroke-linecap="round" stroke-linejoin="round"/>
</svg>
