<svg width="44" height="44" viewBox="0 0 44 44" fill="none" xmlns="http://www.w3.org/2000/svg">
<path d="M22 30.9172C18.282 27.1973 12.6775 26.5135 8.26467 28.8657C7.0125 29.533 5.5 28.7098 5.5 27.2908V10.6222C5.5 9.45616 6.039 8.33416 6.98867 7.65766C11.5445 4.40899 17.9117 4.82883 22 8.91716C26.0883 4.82883 32.4555 4.40899 37.0113 7.65766C37.961 8.33416 38.5 9.45616 38.5 10.6222V27.2908C38.5 28.7098 36.9875 29.5348 35.7353 28.8657C31.3225 26.5135 25.718 27.1973 22 30.9172Z" stroke="#225CF3" stroke-width="2" stroke-linecap="round" stroke-linejoin="round"/>
<path d="M8.26465 36.4483C12.6775 34.0961 18.282 34.78 22 38.4998C25.718 34.78 31.3225 34.0961 35.7353 36.4483" stroke="#225CF3" stroke-width="2" stroke-linecap="round" stroke-linejoin="round"/>
<path d="M22 30.917V8.91699" stroke="#225CF3" stroke-width="2" stroke-linecap="round" stroke-linejoin="round"/>
</svg>
