<svg width="33" height="34" viewBox="0 0 33 34" fill="none" xmlns="http://www.w3.org/2000/svg">
<g clip-path="url(#clip0_139_1773)">
<path d="M0 16.34C0 8.87293 0 5.13943 2.31971 2.81971C4.63943 0.5 8.37293 0.5 15.84 0.5H17.16C24.6271 0.5 28.3605 0.5 30.6803 2.81971C33 5.13943 33 8.87293 33 16.34V17.66C33 25.1271 33 28.8605 30.6803 31.1803C28.3605 33.5 24.6271 33.5 17.16 33.5H15.84C8.37293 33.5 4.63943 33.5 2.31971 31.1803C0 28.8605 0 25.1271 0 17.66V16.34Z" fill="#0077FF"/>
<path d="M17.5588 24.2738C10.0375 24.2738 5.7476 19.1176 5.56885 10.5376H9.33635C9.4601 16.8351 12.2375 19.5026 14.4375 20.0526V10.5376H17.9852V15.9688C20.1577 15.7351 22.4399 13.2601 23.2099 10.5376H26.7575C26.1662 13.8926 23.6912 16.3676 21.9312 17.3851C23.6912 18.2101 26.5101 20.3688 27.5826 24.2738H23.6775C22.8387 21.6613 20.7489 19.6401 17.9852 19.3651V24.2738H17.5588Z" fill="white"/>
</g>
<defs>
<clipPath id="clip0_139_1773">
<rect width="33" height="33" fill="white" transform="translate(0 0.5)"/>
</clipPath>
</defs>
</svg>
